<mxfile host="app.diagrams.net" modified="2020-12-03T13:26:18.521Z" agent="5.0 (Windows NT 10.0; Win64; x64) AppleWebKit/537.36 (KHTML, like Gecko) Chrome/86.0.4240.198 Safari/537.36" etag="vn1sHpXZAGPjLOl9dZI5" version="13.10.4" type="github">
  <diagram id="SXBrLkK9Pnhf-DyRh0Yc" name="Page-1">
    <mxGraphModel dx="2894" dy="1858" grid="1" gridSize="10" guides="1" tooltips="1" connect="1" arrows="1" fold="1" page="1" pageScale="1" pageWidth="827" pageHeight="1169" math="0" shadow="0">
      <root>
        <mxCell id="0" />
        <mxCell id="1" parent="0" />
        <mxCell id="zfGOiNllnzhhjnwTN5HJ-2" value="" style="shape=image;verticalLabelPosition=bottom;labelBackgroundColor=#ffffff;verticalAlign=top;aspect=fixed;imageAspect=0;image=data:image/png,iVBORw0KGgoAAAANSUhEUgAAAFEAAAAwCAYAAABpJ5bJAAAD2ElEQVRoBe2Zz2sUMRTHo7aCtqLd4kGQgljdS0/KiBSk9C8QkSr+CooHpXgQf9xUREY86kVEj1JKrFg9ePBg6aUgKR6E6qWCVvFSIlIQoRd58jKTzCSzM/trWne62TK7JJtJmk++7/vetKQf+oG4n4YJSH4OYA4Ecpii4VNcM2uvmY38z6O0Ic7+mgUhhLtSGCAfmxmxOxzA6gKymTmIKYrLEpOD2AA0G6iD6CBW9ytbNSvRdkp0SnRKXDO1Z+7hzCgBgoVSxuX5vDUAcg6MekBZc4puY4gcfC847JaDaGQ/7oMnFemBz5s7bWPeHJKBEIWHGIRRPOQ96gPXcBhQBd+n4UFQYOFBcN1HwKMMOKOhfVBgeg4B8XGEeEC1jUQAo9/BvLeeQ8s9nI3FU5SY6puUhV6pIMa81Qsgc9/L8NsIRNoagR8XHqICZCorUISCoMYQIKg0IYBLFSb7BWfa2wgJ79eHF60h4n1SrRHIAnsiB8Z8oDSurCREY4MahOWxdjjrdkzJsWohmLPQEJN+mPQlpbgqsJT/abjBIWSHPAlLmiJD1CpBo2fAOQeh+kLfEyIFooaVDVdD1PNVqgwKDDHaoApdDr4q0PWmUyBquJFXZnsiqi4o7JMZPILYbPG/+tlZqS7mUTWHMyaYCtnZ85SvqoMRkJ2dA2WaYyx1K6uo4XP1IUoQqvYjQDzMoLby7LYZjvH6D+tEbQcqO4fZl/leWGNigonXieF83AcaPrXIzN7gA8HKQqzhFI26sup4BTcWznF1ajswode3Rv33FgxiepiiJTTrbY3CLhxEfObFv7wEz+SqDqwQqlVVXb/i0iAXEGJ+m0+DUm+/g5iDYh1EB7E1Qtsp0SmxIEpc+LnQGv9UykEx9WbdWsYjn6rhnBiQvMX12AQctMoEupbWwal7m+H+8FZ5XbzeBT2L6218QbvyFO3dOzDTCc8PlWGBjYOYmYEfk5PwdvAgjJVLcODNxiTI9saV3D2q7dlQGf58/wbx19/lZZgeHoKxvT2wc36DCTI5TXv3jF7phs9PHkl+n758BXrnLryb+yjbqMpX23vh1oktDmKWTB7v3wZLc3MS2vGbt6HvyAgMXhiVbVQjQpzo63UQsyA+LZd0KA9fuiwhDpw+KyHiG0Kc3FFyELMgYqhiIsHXxNQ07Dl2Eh6+eCnbv+fnJUTM2MYcRsP8qi1bu+Y64PXhIQnNfuP0DIzvLsG+qU6TjYOYJHD0wSaYPjeiw3p5cRE+XLsqAZ6/0WUCxFZyCteDBMrvO2SRjR6IFyachAIVTocsBwLd0K14us8GCCC/f0vkSMy58bZEAAAAAElFTkSuQmCC;" vertex="1" parent="1">
          <mxGeometry x="-587" y="-109.33" width="81" height="48" as="geometry" />
        </mxCell>
        <mxCell id="zfGOiNllnzhhjnwTN5HJ-5" value="" style="shape=image;verticalLabelPosition=bottom;labelBackgroundColor=#ffffff;verticalAlign=top;aspect=fixed;imageAspect=0;image=data:image/png,iVBORw0KGgoAAAANSUhEUgAAAFgAAAA4CAYAAAB5YT9uAAAFh0lEQVR4Ae2bP4zfNBTHM1SiGzchlkqMDEjHQKTq14WRsSNTxBQxMjIwRmLo8ts6IibSiaElVw6O/lE5KapKW2jLn/SfqmuPNkMFElCBqoee7efYPjs/JwRdDl6kyImf7Tgff/PivJ9/CURsf/71FB7ufgI3f3gPti+/ybuHwbe33oX7D07Cb7/fs4gm1pnnZPfxp7B5/mU4/XnCewSDz744DM3dDzXJXsCoWgY7Tljf//S+gBwE/OzZrlbumc0X4Np3H8DOw2+gbVvePQx2f74NN26dgI0vX9Si/OXXqxAEjP6E1ItwGWycsJo7pzQ3fGcFAV+78Y4uiKPDgOMAI6fNc0cEuwvbr4cB42wBFXz2q5cYrscl9AnuwvYxwW7r4iurAeNo9DXGtr3K3mfAJWRJAklWDh64uiwgK4bXc0UwVTtuu3R+QAGPHxi6cZlO1c5e5dJ1Zg24LjJIUeFiTyEramjbGoqU8hJI0gJq9It1ARnlpxkUtbrpuhBtpFmm7CvaGehjCWQonS9gASbVoMoMoWZQCgCO8giiGgCrrLLJgaDBCbQzMVyEPl/A4mZrKAtUZqpVLJVpA64LtHeD0ZaZKJ+VUtn4FKQCfgsW/NZuJ6TCf5I/X8BaeRkUZa3AEEQbjARsuA3lVgRUS90MWM8mXFX2Kc8taymOAfunaaRK+ZgrxWo3YCsYX3CmG7CAO7a+gbIGZiJ/PA8XoWcK8jGX/pJeSJiXQpZJPyyAty3QAOgXX+nMOND/IqRewJ52JgJLg7XPgMPzR+rgQU8Z8MSKdQXBgBnwwXYjrOD/m4JL8VUmZw46nuCDYH6t+ewzyZuZgtX8lgI4fZAY8FDfac57UcEyIOOPqLVgxRtwIAZH04b2b1z5eStYfCRQ/MGJI5gKtj4mKG6hImbK5o+mjYPmTsX6zucNWLiIQETNAGx9GmMdw7bqS64PzhS2eQPW6vNE1AyI3Wez/NSWAXoVorTU7TwFfT5+ItusAbvKtAI1ewB3rsRSHgM2/aA9iyBleiNqBmDXDVgDw4DDgO3f35yImglY+V3r97vIaJql9oncgtnmzFyECfu/ccyA/wXVDlbw5avHxfIfXFn55MmO/lnHbIiP/U/c1sXXBLtzl14NL53CRcS0uvLH5mMGHKl6XOJL3K5cfzsMGNe2UkFcAHj33gZDXgH50aObcP7rNzS3BzsfhQHj8mz83wFBxhSljw6cdz8DkxWuTsUtuD4Yjc+f/wHmOmGzAT4O/7XgUn0U8I9DKwGLEgDwuN0A9Ce43pXB+sGe3VqD+spb4p9GxC0asFmBj4cR6HURw5qaf+n19XW13s0OEGGgCG2r7HiHoTKY79vCgKscFsvGV2dvXtNAZMmurq9Os4SFsyAl2AfqH6Vdy8EjBBmau1M0rs+ODYfawHzf5s/FktEdryBfLAcCDtRBwHnl62c4L7qfYTgIdR6ALYUtAAXeLBeycwJMBTkpkKBXue58kuSA+Ow6BrsQYM91tQAIMKWqfdmdHBYL7B9etwqqb0aAO1eAkKTYOjV2ecYTgICVKjt7V8fAi+QdFyEHBAx3otsgoG7qADavHXq85wMYGlguuheEC7jKO5t45LAAATBvHHoAq8GwwPuuS+26qXkdsonxln3r87GrBgD7FCqD+b7Nn4sljc5RxSqXbkGak34Fd5X0y1KrbyBg73Wpf26qYIpxIpuCHoKzbwrGDuldqZHO85xmGUrV8o46H5wkEqxzk1KgZh0aCUHB/5Iz/Li+LrVLKQ6a6i/6XRcwQAWHDx3q7se8tySBtbU1sdP9uSnaccPUteE52Y27EYdhBbsl+XwUAQY8Clt8JQYcz2pUSQY8Clt8JQYcz2pUSQY8Clt8JQYcz2pUSQY8Clt8pb8BC80AeGPiQ8YAAAAASUVORK5CYII=;" vertex="1" parent="1">
          <mxGeometry x="-936.47" y="39.74000000000001" width="113.47" height="72.21" as="geometry" />
        </mxCell>
        <mxCell id="zfGOiNllnzhhjnwTN5HJ-6" value="" style="shape=image;verticalLabelPosition=bottom;labelBackgroundColor=#ffffff;verticalAlign=top;aspect=fixed;imageAspect=0;image=data:image/png,iVBORw0KGgoAAAANSUhEUgAAAFgAAAA4CAYAAAB5YT9uAAAFh0lEQVR4Ae2bP4zfNBTHM1SiGzchlkqMDEjHQKTq14WRsSNTxBQxMjIwRmLo8ts6IibSiaElVw6O/lE5KapKW2jLn/SfqmuPNkMFElCBqoee7efYPjs/JwRdDl6kyImf7Tgff/PivJ9/CURsf/71FB7ufgI3f3gPti+/ybuHwbe33oX7D07Cb7/fs4gm1pnnZPfxp7B5/mU4/XnCewSDz744DM3dDzXJXsCoWgY7Tljf//S+gBwE/OzZrlbumc0X4Np3H8DOw2+gbVvePQx2f74NN26dgI0vX9Si/OXXqxAEjP6E1ItwGWycsJo7pzQ3fGcFAV+78Y4uiKPDgOMAI6fNc0cEuwvbr4cB42wBFXz2q5cYrscl9AnuwvYxwW7r4iurAeNo9DXGtr3K3mfAJWRJAklWDh64uiwgK4bXc0UwVTtuu3R+QAGPHxi6cZlO1c5e5dJ1Zg24LjJIUeFiTyEramjbGoqU8hJI0gJq9It1ARnlpxkUtbrpuhBtpFmm7CvaGehjCWQonS9gASbVoMoMoWZQCgCO8giiGgCrrLLJgaDBCbQzMVyEPl/A4mZrKAtUZqpVLJVpA64LtHeD0ZaZKJ+VUtn4FKQCfgsW/NZuJ6TCf5I/X8BaeRkUZa3AEEQbjARsuA3lVgRUS90MWM8mXFX2Kc8taymOAfunaaRK+ZgrxWo3YCsYX3CmG7CAO7a+gbIGZiJ/PA8XoWcK8jGX/pJeSJiXQpZJPyyAty3QAOgXX+nMOND/IqRewJ52JgJLg7XPgMPzR+rgQU8Z8MSKdQXBgBnwwXYjrOD/m4JL8VUmZw46nuCDYH6t+ewzyZuZgtX8lgI4fZAY8FDfac57UcEyIOOPqLVgxRtwIAZH04b2b1z5eStYfCRQ/MGJI5gKtj4mKG6hImbK5o+mjYPmTsX6zucNWLiIQETNAGx9GmMdw7bqS64PzhS2eQPW6vNE1AyI3Wez/NSWAXoVorTU7TwFfT5+ItusAbvKtAI1ewB3rsRSHgM2/aA9iyBleiNqBmDXDVgDw4DDgO3f35yImglY+V3r97vIaJql9oncgtnmzFyECfu/ccyA/wXVDlbw5avHxfIfXFn55MmO/lnHbIiP/U/c1sXXBLtzl14NL53CRcS0uvLH5mMGHKl6XOJL3K5cfzsMGNe2UkFcAHj33gZDXgH50aObcP7rNzS3BzsfhQHj8mz83wFBxhSljw6cdz8DkxWuTsUtuD4Yjc+f/wHmOmGzAT4O/7XgUn0U8I9DKwGLEgDwuN0A9Ce43pXB+sGe3VqD+spb4p9GxC0asFmBj4cR6HURw5qaf+n19XW13s0OEGGgCG2r7HiHoTKY79vCgKscFsvGV2dvXtNAZMmurq9Os4SFsyAl2AfqH6Vdy8EjBBmau1M0rs+ODYfawHzf5s/FktEdryBfLAcCDtRBwHnl62c4L7qfYTgIdR6ALYUtAAXeLBeycwJMBTkpkKBXue58kuSA+Ow6BrsQYM91tQAIMKWqfdmdHBYL7B9etwqqb0aAO1eAkKTYOjV2ecYTgICVKjt7V8fAi+QdFyEHBAx3otsgoG7qADavHXq85wMYGlguuheEC7jKO5t45LAAATBvHHoAq8GwwPuuS+26qXkdsonxln3r87GrBgD7FCqD+b7Nn4sljc5RxSqXbkGak34Fd5X0y1KrbyBg73Wpf26qYIpxIpuCHoKzbwrGDuldqZHO85xmGUrV8o46H5wkEqxzk1KgZh0aCUHB/5Iz/Li+LrVLKQ6a6i/6XRcwQAWHDx3q7se8tySBtbU1sdP9uSnaccPUteE52Y27EYdhBbsl+XwUAQY8Clt8JQYcz2pUSQY8Clt8JQYcz2pUSQY8Clt8JQYcz2pUSQY8Clt8pb8BC80AeGPiQ8YAAAAASUVORK5CYII=;" vertex="1" parent="1">
          <mxGeometry x="-891.93" y="-338.93" width="127.86" height="81.37" as="geometry" />
        </mxCell>
        <mxCell id="zfGOiNllnzhhjnwTN5HJ-7" value="" style="shape=image;verticalLabelPosition=bottom;labelBackgroundColor=#ffffff;verticalAlign=top;aspect=fixed;imageAspect=0;image=data:image/png,iVBORw0KGgoAAAANSUhEUgAAAFEAAAAxCAYAAACie0VsAAAExElEQVRoBe2bu07kMBSGQ0eJtFqJAq2moKCkWG9NySNQWZQ8BoUlHoOSlFusRMEDoCAhSkpA26yUgpLyrI7t37Ed58bcMkwijTIZjuPjL/85voWMpmNuAtndr5/0+/u3UX7Yt8PDQ8qybLQf7d9YAcKvMQN0vsHZsZ6doyNWYzZWePBrIyH+fXyksiynTwODh4eHen7GE8d5AtgtoFp0AB7Oc0EsFIlk7hKkim7n5qq7QTnLuOdqIMp8LemgyBVJtfy6vy5ERMEKHuAaIRakBA+aJeUIPdtwoQqj3CInJYRL3EIqKmBb5iQ5VQhJSsJGkMw5TeDeGJR7dbjyi0snq4EY50VhYeRSAzINL6lQDAP5EpAU5Zw/i+ragLTXCXv99+1QIivBgtAhZ9UTAXaqLJshG6hQn1Xd9kAsKZc2pKNQNqpEOIZno9xYmVsMsbQhLXTuQyiX5H5HfqzlsgmiN+SBgriTSHUcNie6zgKdRAfEIFUsrhNJjTPX07Fkme1FTeMQuuhgnKPcmege3IazkKaT0arsgsipAr22X27xQJcLsRaCi2+AA77GuiaIC4A/QZwgjiM9TEqclPgllFh4w4iMwgWCVAPtsCRYWcE4EeO/VLlV/jbcn7nCORjfYebROMNgEBNEb5ZhlAGIepHAQswClcUKmiDWIDpluaUub+6bTNg9IRaqNlNx2wlYnXF1mtmMm+20lUUkCEHCX8v07skpycyS+qeXucI5XPyUPfZNLMQIgHECTlegg3XDYF5tFQ71u4XdrrKo33/Y9jfcP5d2Xwj+xNFUv54DIhzK7FPNiMOa9zWUyr0VaL/SqpHVdC2dyIs8JyWlu3ewAq5VXtXvVGjV31w2Asb2tVye9qfy12+P+f5piEE+RJhkUZjUQroPRCw6CL3JVGBF26nNOG7WITMKc3BX2TpEtKN6EGuAiMrhjH4qjZ1LD4hWGbivy7sIN089NXV2lq1DXKsSSyRjC6xQZr9EQwyWrHz594cIhVUPBznK3iNaTtPhhhzpfPKWwnRUJCAiivCQcI9I+UsJZ+O08nIW50ZJSnFi5l03u2MXhHQPiKW/Dujv5tnOwDUy3DLAgm61hpgoGwODbxBEZiYMK+6dfZVt7/dPdyxt8t62v3VC/Pf2lhhkb6/qYoG8vr66lwscTLzINNbz8fFx3enk4D3KmSuyOTg4oI14yZPfTH96eqLd3d1GoKenp/Tx8eFeYr+5uWm0ZQUNtecyl5eX7v785fr62tQxVgXCL3b+/f2dZrNZIxRWK9vguL29bQU+1L4VICsezo71zA04OTlpBHh0dBQA7FLsUPtOgJsCkRuS+rA6X15eIEB6fn6mvb29pC2XH2rfC+AmQ9zf3w8AMsy2kB9qnwLIaSL1MDcinGPHWW0ctjg4H3KYxna4HmrP5eJOpDXPjjUXwi+AwJl76Pv7e/DTPXLbMGio/WCAmxbODIQVgYOHNDxUAeD4PNR+KMDz83NTN574WM8+GB77+cfZ2VkjQC431H5ICLMt52Ht31jhwS9A5IGtf1xcXLQCHGofA+SUwUpG/f4ZthsF8erqyuenk77fqPj7UHtAQSXcaTUNlXxbB/HP7Mco/02Xlci+NakhBreu652dHfoPb7iQ57dsIp8AAAAASUVORK5CYII=;" vertex="1" parent="1">
          <mxGeometry x="-810.9999999999999" y="390" width="81" height="49" as="geometry" />
        </mxCell>
        <mxCell id="zfGOiNllnzhhjnwTN5HJ-10" value="" style="shape=image;verticalLabelPosition=bottom;labelBackgroundColor=#ffffff;verticalAlign=top;aspect=fixed;imageAspect=0;image=data:image/png,iVBORw0KGgoAAAANSUhEUgAAAFoAAAA4CAYAAAB9lO9TAAAE8UlEQVR4Ae2b7YrUShCGc1P5k4vJz1xJLmBuQBQViSCoCAFBEATFsEePu8O66ri6juvHGD3KORzxY7WkOl2d6p4k05OMO7NSAyGdpLu6+um3Ks1uJwCP39ejI9j/+AHuvppC/vSRHA0Mbh++gL33M/jv65dGokHjXXbz4NM/cGH3AZx6sCWHB4MzO/dge/aaEayKnaBRxQK4n8C23hxasFtBf/7+zSj59PZfcOfZBKZv30BZlnI0MHg9m8HWwT6c3blnxPn+8/8GditozDekZoQsgP0Etns4NdzwnUa/VtC3ps9NA5wtAe0HGjldGP+t2F15vEucoRU0ri5Q0efH9wVyQ6roEt7VvbFid/Hhjj9onJ0uo/JsXukCekll9hWRgBbQ8+HXV02b0E4ULYoWRas14SaE40nyQVLHyUgdGcRBAIF1hBCnxcaus7MY/Y0hQ8BZrHyPsypNFVkKcZpVvjvPhkbPQEVr0LF2riygGkgIabGZOdYCbanZHctq/V8x6BLKIoUwCCBUqtbOh6G6p5SEE1CkEIc6EsLYnhT+LHCigz/j7ajPONZ27XZFGlZRF8YQNyq6gJT8wegMUyhcRffsmyLheEBTqKKCCIqaCIoAHcplraqiLJ3BOs8UPB052qYCVBI0bdPqT9sgfyyYtX0Fp+WZ8su3bxYxKwZN4Ch1OM4jPO6kmyetwdmhO9eOA+TlstTpqwLttrNSh9Wf4yt75tqwxNLRN6kZz6sB7b4MM3oZOs4b0O4LtEo11YACoJcTd3RusEz91sAXgK7sNL0MHV+7QHv2zf1fDWjzMrRVWHKHdBjNA2Nt2OC4k1iea8eVxMsLQJ9sRS8B2lWfDbBWFeZCq66GGcQZtOXJ6gVspw7LBk38sjm6b9+/L0czdapOanCWQrNYr0IwhYR2quBvd1y98Enkz5pWHXr9bqnWRAOuJtpWHZXf1aTrdbYbXT37pnEPTB0uWLkmsO5ZQLPwduGs8lpAC+g/Kw2JokXRomj5w3+PKJDU0QNan9WIgN5E0DeeP1XbmnAn6ax8t7H/RemjuN/d5tLutmJ36dF48ZYw3ExNu0l3pgcC2jMacGszcbv5Yn8xaNzbSw1wo+PjVy8F9gLYh7O3cFlvcER2Tz6Ui0FjDfwug2DjGUMCE70czQw4K9yNy3+t23ax0tHPH8D3SXNDUm7/5OLaZA/wAyv+6wRNFV/++wkw3+B+XwHcDPjc+D5cf/ZEfZlF3PjZCzRvIOV+BAR0P25Lt2oHnSfOrqQE8qXN928wGUWQYId5AtFoUhmaTECV+L3+XRxry07QZoDo0jEPzoA2OHJIolEF2tw7OYXlQSPwKIIgQIXnkND2AwNhAqOIthhQFLB7VM+KGKpX28M+uKIRvNr3hzfNpPvaXf+EdIK2NzRqGAhIEQCwVEeDpzOOTdfFehQdptxgh9vLk8ACDTipbJLQnrEFlS+qjwa768cM7Z+/1apx3GQgEYY1GUluw9dN8yQCSrMwGUFkqbKeMF7PQDf9zYPm9bvsOiNYy2WnokmFlmdm4DWgtudq8NEI8hZFk32CSme0N0TRrl3LvzVdDAKtwplydBCY9FArnZTcnEvngbTnaABtw4oGX7trosu6bQfNKklxOAEBPZyhlwUB7YVpeCUBPZyhlwUB7YVpeCUBPZyhlwUB7YVpeCUBPZyhl4Vfq1Z1HRC+RH0AAAAASUVORK5CYII=;" vertex="1" parent="1">
          <mxGeometry x="-788.12" y="34.74000000000001" width="132.12" height="82.21" as="geometry" />
        </mxCell>
        <mxCell id="zfGOiNllnzhhjnwTN5HJ-11" value="" style="shape=image;verticalLabelPosition=bottom;labelBackgroundColor=#ffffff;verticalAlign=top;aspect=fixed;imageAspect=0;image=data:image/png,iVBORw0KGgoAAAANSUhEUgAAAFcAAAA4CAYAAACIamTjAAAE20lEQVR4Ae2bWU7rMBSGvam8dDF5zEqygC4jK+ge8sIgJqEyiEkCgkC8IIFA5+p3cjzVTtLeBtrGSJHbeP78+8Q5nArq+Pv+/qbX11e6v7+n+XweLw+D29tbqqqKPj8/LZrC+uZ8eXt7o6OjI9rb24tXDwYHBwf0+PioKAbhQq0R6mqienh4kIC9cL++vpRi9/f36fLyUq4IpB+vRQZPT090fX1NUC4L8uPjg7xwAZALAWwEugjUx+Tu7k5xwzPKC/fm5kYVwqr4Gor3/MAPDw8lu7OzMz9cnAqgXBSMEP0QQ1xOT08lu+Pj4wg3BGnV+1sNtyxySvOi3lFFSkIISotudRV5IssKkVBedpcfIdyCUiFIpA3c3qeXpl6SU9m7zmoLsBHKLfOUEoCSV0JpXmr7XuaUJm5eSbm6J0gAlKtcs16SNgp16omUigEB/z3cMqfE2J5FCpA8aa1OqMwGqPPktjXhyjYFJXKRSvK2ORblVlVJRQ6FOrbQBLagsDDcUtpUw55a7YzJLDQqE9i6BausBlNDCj2kuuCyKdFpreQRwXVVZm1hS3HuQ6ULrqFcS/Wjg9uos2wmrmywBiif7JYt1XntNrciewFHBBf2Vj/5E0rT2u6q86r51BeCEuPoxWZDPgBdlRfOCUSdf0cF193uu/P9749ilj3cHbAwVRHugIsb4Ua422kuNkq5vb1V7slgQPWt6hHbMJu7xBEpwl1mK5tnXe24CXrLXLjmWVh5wCqq+KUjTRvPmuNxG1jxG2QWHOVKMPoVNvhazAB9HrAmT7ok1csKe9yWWfzVym4uXKmqbm+Z/WpbUWWq2gJfOa7H1YAtY4M3F65S3aK3zASoX4G19wtOd+kBi3BZQbZZcBUZMgtuOUtZEW4b3IC3rGXrW7AjXD/cVm+ZCRe2OeQBi3AZ7u6lG/RAGyHcq6srGZKDCMfn52f9L++BD+DWg2lL++J4ZijYG4iHAF6OckRQ3i5M+jfmYHJDSKkXLmJLGS6C8RAO+RuD2+Y+APbk5ERxe3l58cNFWDTi/BkwUsgdUo+Xn4HJClGi+PMqFxk/Pz9kxumalePncDj/+fk54Uc6rXBlLhG9v7/LkHTEm0aofqgwnRcXF9J0MrdecM3C8fNyBIJmYblmYmkfgU64s0yQyGa+uvY9/PgNd2YZTaa1QbcL9Pg2n9JEhZXWHq9gW9wPpz2a/+0iHXBnlE0yebXjRblpDfd/ZgC4fRbS7GNb4c6nE6lCpHrOc5pO2I+aEaAjXwYxo5CarAkcdeqyRDPKWJ3ugoTgWoqekNwY3I+bNuOR40XeBGND3y39mou1xs8tygWQZiKYHIPgyWAQs6wxGQZII3+WGfWb1bEWyigr52RBxAI2C8ImxwUHytwGp04ZNmmt/a4RqNlUGO7CRGtQ1iBVS364PHGzjrThrFykektgCwTMgrlbRL2LGKabOnDZZrf2q+ax3g9BuBiMOW8GpVKMQyk6ABdb0bHZJuiFqQTgqh0gN0s3XDV2Bm8CX+h0uBsBuLBPbCO5c31Pq6DZ9tQoC6thTAg1ZVl7lbTNFcI+WQTgos36hymCsqw5jXA/nBo2FXZWdqny5EjC/fIU15wG4K65l5E2F+EOuPARboQ7IIEBm47KjXAHJDBg01G5Ee6ABAZs+h9Sk3jCgSJfDgAAAABJRU5ErkJggg==;" vertex="1" parent="1">
          <mxGeometry x="-612.0799999999999" y="49.99999999999999" width="138.07" height="88.87" as="geometry" />
        </mxCell>
        <mxCell id="zfGOiNllnzhhjnwTN5HJ-12" value="" style="shape=image;verticalLabelPosition=bottom;labelBackgroundColor=#ffffff;verticalAlign=top;aspect=fixed;imageAspect=0;image=data:image/png,iVBORw0KGgoAAAANSUhEUgAAAD4AAABOCAYAAAB446WFAAADtElEQVR4Ae1aza3DIAzOAB2jK7AO02QYVuHSH6nqpYdeemMIniBxYyiQkuCnNnWkiPeIMf782QSTdpb42u/3tuu6qtuNob468gkqQYOTyO0in4CB14U7OSHkEzDjzPhbKzx5JJJPwKHOoc6hDpuVVEueguQTcI5zjnOOp3Ib+shTkHqC3W73FsMA2LVuDPVFXpZSA1iqn4Ev9dy3jmPGv5W5pXYz40s9963jmHEq5vhcvbJKoyIC9JKHOt6K1vwNBlK1DJzMs5UhDlFBZQ/oZcbBE61bYLC2bW1HrI8Zjz3S6v9apkG+1fw5Pcx4zjNr+4HB2nbtvHPjmfE5Dy19Xss0yC+d791xzPi7nqqVAwZr29p5auXJGf/oc/XH42Fvt9tP3Pf73QeHZ9yBPhwOP3FfLhcG7kPcMX4+n60xZpP39Xr1EZ1kfA646sX4AVDYXhccpKSXk6ogU+lgJd33dWlV5TggcgVwZaU7VBC91XOTbwe4tr3Av2gYPK97acXzhEVY2eshTWLgurcSxgs5RYvu/Xgh5fgc6TDGaogwIa2MGc/pzJDSjnFv9BTyQShi4ADOO0XbQG58NkQROHcM52DcGG0Q6sGzSCc5cD+Btqp3bEa5j4APrE0OMuiZCQCYwCnxOOyw+Fmgkxz4ky1pewVeHwEicM9wfabEkDLCRUAF8EEPpBg4GqdfZ71OauCx1zEjmIFYDlZZ31YAx/qLOv8HeGf9K0tDDr4yHrMaGF0AHo4D/an8h0UQpVMCfLvFzcBi5MJNWCmH8POOQKHumVXR6g/v9xLwuVU9pzMB2tmwAni7zUgQ7hlDW8sw8FSRMrdlbc3Cf+pjxplxa8tl6bjyhmdm4Z56dcjGbwGCBa8+1KNXjgOp/Kur/N5c7YzG4JsAxzszBzBbpRkoZcVYxUmrYLMjUF8f1e/Zyiulz/itb7L6Q85rAhxvH4cd1sR+8AyAQ1XlDYl2Ya4Ph3oQYVADjDu2lL6i/LT3WAw8zPHOCqnQgUSmSgNDpULHWSNw3IeAB1va2CkJfWX5BsBx5aNHQ3GF1bkDhrhKSxhqUn0vwMOqyzl9mP/VaQPwnHxj4Nj42OPJUMfsvgV8Sp1wkcwBz8k3Bo4ZB48nq7QUyFQfYjysyuLK6xV4Wb4B8HyOF6q0FMhUHwY+5nVwlgfVXGpsUX4NcKd4A3f9qr4B0I64IvDj8egFnNDW7tPplP+S8gsfDpOfkH4OeO2vCbYgT/6LiE91EgP/VGao7GLGqTz7qXr/AG8WS28usJptAAAAAElFTkSuQmCC;" vertex="1" parent="1">
          <mxGeometry x="-277.75" y="-124.56" width="62" height="78" as="geometry" />
        </mxCell>
        <mxCell id="zfGOiNllnzhhjnwTN5HJ-13" value="" style="shape=image;verticalLabelPosition=bottom;labelBackgroundColor=#ffffff;verticalAlign=top;aspect=fixed;imageAspect=0;image=data:image/png,iVBORw0KGgoAAAANSUhEUgAAAD4AAABOCAYAAAB446WFAAADtElEQVR4Ae1aza3DIAzOAB2jK7AO02QYVuHSH6nqpYdeemMIniBxYyiQkuCnNnWkiPeIMf782QSTdpb42u/3tuu6qtuNob468gkqQYOTyO0in4CB14U7OSHkEzDjzPhbKzx5JJJPwKHOoc6hDpuVVEueguQTcI5zjnOOp3Ib+shTkHqC3W73FsMA2LVuDPVFXpZSA1iqn4Ev9dy3jmPGv5W5pXYz40s9963jmHEq5vhcvbJKoyIC9JKHOt6K1vwNBlK1DJzMs5UhDlFBZQ/oZcbBE61bYLC2bW1HrI8Zjz3S6v9apkG+1fw5Pcx4zjNr+4HB2nbtvHPjmfE5Dy19Xss0yC+d791xzPi7nqqVAwZr29p5auXJGf/oc/XH42Fvt9tP3Pf73QeHZ9yBPhwOP3FfLhcG7kPcMX4+n60xZpP39Xr1EZ1kfA646sX4AVDYXhccpKSXk6ogU+lgJd33dWlV5TggcgVwZaU7VBC91XOTbwe4tr3Av2gYPK97acXzhEVY2eshTWLgurcSxgs5RYvu/Xgh5fgc6TDGaogwIa2MGc/pzJDSjnFv9BTyQShi4ADOO0XbQG58NkQROHcM52DcGG0Q6sGzSCc5cD+Btqp3bEa5j4APrE0OMuiZCQCYwCnxOOyw+Fmgkxz4ky1pewVeHwEicM9wfabEkDLCRUAF8EEPpBg4GqdfZ71OauCx1zEjmIFYDlZZ31YAx/qLOv8HeGf9K0tDDr4yHrMaGF0AHo4D/an8h0UQpVMCfLvFzcBi5MJNWCmH8POOQKHumVXR6g/v9xLwuVU9pzMB2tmwAni7zUgQ7hlDW8sw8FSRMrdlbc3Cf+pjxplxa8tl6bjyhmdm4Z56dcjGbwGCBa8+1KNXjgOp/Kur/N5c7YzG4JsAxzszBzBbpRkoZcVYxUmrYLMjUF8f1e/Zyiulz/itb7L6Q85rAhxvH4cd1sR+8AyAQ1XlDYl2Ya4Ph3oQYVADjDu2lL6i/LT3WAw8zPHOCqnQgUSmSgNDpULHWSNw3IeAB1va2CkJfWX5BsBx5aNHQ3GF1bkDhrhKSxhqUn0vwMOqyzl9mP/VaQPwnHxj4Nj42OPJUMfsvgV8Sp1wkcwBz8k3Bo4ZB48nq7QUyFQfYjysyuLK6xV4Wb4B8HyOF6q0FMhUHwY+5nVwlgfVXGpsUX4NcKd4A3f9qr4B0I64IvDj8egFnNDW7tPplP+S8gsfDpOfkH4OeO2vCbYgT/6LiE91EgP/VGao7GLGqTz7qXr/AG8WS28usJptAAAAAElFTkSuQmCC;" vertex="1" parent="1">
          <mxGeometry x="-307.5" y="-230" width="62" height="78" as="geometry" />
        </mxCell>
        <mxCell id="zfGOiNllnzhhjnwTN5HJ-14" value="" style="shape=image;verticalLabelPosition=bottom;labelBackgroundColor=#ffffff;verticalAlign=top;aspect=fixed;imageAspect=0;image=data:image/png,iVBORw0KGgoAAAANSUhEUgAAAD4AAABOCAYAAAB446WFAAADtElEQVR4Ae1aza3DIAzOAB2jK7AO02QYVuHSH6nqpYdeemMIniBxYyiQkuCnNnWkiPeIMf782QSTdpb42u/3tuu6qtuNob468gkqQYOTyO0in4CB14U7OSHkEzDjzPhbKzx5JJJPwKHOoc6hDpuVVEueguQTcI5zjnOOp3Ib+shTkHqC3W73FsMA2LVuDPVFXpZSA1iqn4Ev9dy3jmPGv5W5pXYz40s9963jmHEq5vhcvbJKoyIC9JKHOt6K1vwNBlK1DJzMs5UhDlFBZQ/oZcbBE61bYLC2bW1HrI8Zjz3S6v9apkG+1fw5Pcx4zjNr+4HB2nbtvHPjmfE5Dy19Xss0yC+d791xzPi7nqqVAwZr29p5auXJGf/oc/XH42Fvt9tP3Pf73QeHZ9yBPhwOP3FfLhcG7kPcMX4+n60xZpP39Xr1EZ1kfA646sX4AVDYXhccpKSXk6ogU+lgJd33dWlV5TggcgVwZaU7VBC91XOTbwe4tr3Av2gYPK97acXzhEVY2eshTWLgurcSxgs5RYvu/Xgh5fgc6TDGaogwIa2MGc/pzJDSjnFv9BTyQShi4ADOO0XbQG58NkQROHcM52DcGG0Q6sGzSCc5cD+Btqp3bEa5j4APrE0OMuiZCQCYwCnxOOyw+Fmgkxz4ky1pewVeHwEicM9wfabEkDLCRUAF8EEPpBg4GqdfZ71OauCx1zEjmIFYDlZZ31YAx/qLOv8HeGf9K0tDDr4yHrMaGF0AHo4D/an8h0UQpVMCfLvFzcBi5MJNWCmH8POOQKHumVXR6g/v9xLwuVU9pzMB2tmwAni7zUgQ7hlDW8sw8FSRMrdlbc3Cf+pjxplxa8tl6bjyhmdm4Z56dcjGbwGCBa8+1KNXjgOp/Kur/N5c7YzG4JsAxzszBzBbpRkoZcVYxUmrYLMjUF8f1e/Zyiulz/itb7L6Q85rAhxvH4cd1sR+8AyAQ1XlDYl2Ya4Ph3oQYVADjDu2lL6i/LT3WAw8zPHOCqnQgUSmSgNDpULHWSNw3IeAB1va2CkJfWX5BsBx5aNHQ3GF1bkDhrhKSxhqUn0vwMOqyzl9mP/VaQPwnHxj4Nj42OPJUMfsvgV8Sp1wkcwBz8k3Bo4ZB48nq7QUyFQfYjysyuLK6xV4Wb4B8HyOF6q0FMhUHwY+5nVwlgfVXGpsUX4NcKd4A3f9qr4B0I64IvDj8egFnNDW7tPplP+S8gsfDpOfkH4OeO2vCbYgT/6LiE91EgP/VGao7GLGqTz7qXr/AG8WS28usJptAAAAAElFTkSuQmCC;" vertex="1" parent="1">
          <mxGeometry x="-400" y="-230" width="62" height="78" as="geometry" />
        </mxCell>
        <mxCell id="zfGOiNllnzhhjnwTN5HJ-15" value="" style="shape=image;verticalLabelPosition=bottom;labelBackgroundColor=#ffffff;verticalAlign=top;aspect=fixed;imageAspect=0;image=data:image/png,iVBORw0KGgoAAAANSUhEUgAAAFEAAAAwCAYAAABpJ5bJAAACTklEQVRoBe2awVHDMBBF1QPDlaEIRDmqRsXoyIEbFeiQIjJcmFERy8iytIplR4liBcf8gwccbKN9+3ZXMBZf72/08fyEo5GB5ycA8HaBALHRwFw+QOwB8ftwIOccjgUGnk9uof++MBEA6wIB4oJh18gDiIBYL7VrjGq9FibCRJi4m20Tynm75WxICUHi7KHIrBBA0zCwloySpMw67aCTiVuGaEnLkOCHgbjWQpuMmzV9hxCNClZIbbNBMx+o1YpkahGS1Mk9bL8ylrSSqZ1IpckOQPm53Gpubyvdy7lqolEhWBkDdeSsHmFxgBE2Bz+FzxCn1wznypBzDwpxNiAhiM2LwUvSNjR6q0eLhsAnUMdrStDxOYKE1GSG6/wAiQMuJoRBVhM82w7KYdTdxDpElwINYGeCjLamUo5gwtcAgyGewEn3PjDEk4CWMhsD9SU9U8rJTEAsy4AnbrRPkhoHApe7owQx75tFQv67iS4DNdjG/XEAnewU5Cev/8xGe0Us0+sh5onihJ5L9vzP/qwnCrEMyg+GsCXhRfOAOO2HDOJSiNyDQ7+erKMwnNewBHo7ELPtB4PJA7BktLxwn5jdVxgbpr0a/2oR3uQ48RsAerCdIGZBNC5sKetb/BwQV0gyIALiNtoGTISJMDH719c2YLROfpQzynkbBldN/Dked1N2reV67j7PpwpxegHO62/SFq/WAVod2pQRIPZ4U3ZKGed1M2EiTKxbco9KgokwESYWm9Z7lF6P34FyRjmjnPdTzp+vL7sJpke/qz3T8/sFRTBvGD7ZyUAAAAAASUVORK5CYII=;" vertex="1" parent="1">
          <mxGeometry x="-60" y="-187.18" width="81" height="48" as="geometry" />
        </mxCell>
        <mxCell id="zfGOiNllnzhhjnwTN5HJ-16" value="" style="shape=image;verticalLabelPosition=bottom;labelBackgroundColor=#ffffff;verticalAlign=top;aspect=fixed;imageAspect=0;image=data:image/png,iVBORw0KGgoAAAANSUhEUgAAAFEAAAAwCAYAAABpJ5bJAAAECElEQVRoBe2ZLVP0MBDHg0MiEQjECSSmHolEojJIPgaiM3wMJHVIPgITDBIJvgJ5cp/ZNpsm27x2+twxRzrD5NrbbHZ/+WeTcmKz2YAQov4tZKD5VYAriKhCrBAXLsMVwNkl0FXi+/s79H1f/wIMkI9nAlyIFWBaQBViQGEl4qkQK8T0UitR1FLbqsSqxKrEgzk21eVcl/NBLecOpH7dkp0nsU7qU72EboWZX7qLZvVbEOtKy7lCZCCXvPZViHuCqKCTjfPy3sgWlFnu08SwAEGIBlpFZSPXTwNtK6EZyo6ETvdX5pkA0Ujo2vLSM4+P/Sspq470U8K5NbGTruJNILLTR5/Jp/nOxDZBXOSnGSdLte4kuuPk12+335CXm1wpRI9DS20UGAFyFTH2JRtSmm5NwRcgZqBjfmissR8qXQ0qnD/vewVtQ/kH4jArZYrPkzM5Gdv/A5ECUNB1LUhnWXuCV61ehrjk7CWf42eC5awS45ONZyaLPffAIzarQ3QCpYFngc3r2BQID36CMAeY44f6TyVgSH4Wk56QEFzKxdNOsRsBmg/DMiTa8ZYCFZAF0STQgGw7UEpBT88cpU1+heBw+6mPiPkhHwyigcWeUxy+8TwAkcteIJqCjrvhEJiCljYaA9GuTyxRnUyenwBEazPEGjucClT3O2pimRJd1Y8zqsEaRfhs9OYStaEJCkHswUyC2fXtsag/1d1wuxcl4hKYnc8USzYKaNqhk36M4kJqprPj3s+J4VmK19LD6LeSEg8DxtIJrxADO24J0AqxQvwdZaQqsSqxKvHv/Nr3/f19MMmW7Li5tsgnWRM9Br5O9Zl+dTw7O0MW4/vj5eUlbLdboOv19TUK6vr62rF/fn7eqz3m8fDwQOEP7dPTUzSmUvtIzgLOz8/h5+fHBPDx8QHHx8fBABC4bY/AY/ZXV1cO8LXtdwEwkbOAr68vAxA/n5ycBAFeXFw4AEuBv729RYHzYFP2uwCYkbMwAFFdqEpa4rzF72zgn5+fUeA+hccmqNR+FwAzcx4hYj1EFXBwdH96euoARJg4AH3PWz442qMPbkf3pfbYj9e0VB0vtS/IeYSIRZMS4i2qB5ctXahYlDi3o3u0R5XSlQJeao/j+IDE6nKpfWHOAu7u7oJAMDCsS3SlFIv2HHhM4aX2uwBYmrM54pCK7Bad4RKhCwHGFOuzTwHk/mP2uwLIY4rlrHnZvzO4n/HsZ1+3t7dBxaKzl5cXY54CvsS+dEmW2mNMpTlHIeJB1b7u7++jALn9zc3NqvYcSOroU2qPMHgOqZw1QMzTVR/ePz4+2vyGIu6zo2fcPlZjff5T9hwI1lws/DQ+b0vtfTGhD+43eH90dJRv7AEedPxHbJHfPxr+u5GTuz3nAAAAAElFTkSuQmCC;" vertex="1" parent="1">
          <mxGeometry x="-538.77" y="-234.39000000000001" width="105.77" height="62.68" as="geometry" />
        </mxCell>
        <mxCell id="zfGOiNllnzhhjnwTN5HJ-120" style="edgeStyle=orthogonalEdgeStyle;rounded=0;orthogonalLoop=1;jettySize=auto;html=1;exitX=0;exitY=0.5;exitDx=0;exitDy=0;" edge="1" parent="1" source="zfGOiNllnzhhjnwTN5HJ-19">
          <mxGeometry relative="1" as="geometry">
            <mxPoint x="-440" y="500" as="targetPoint" />
          </mxGeometry>
        </mxCell>
        <mxCell id="zfGOiNllnzhhjnwTN5HJ-19" value="" style="shape=image;verticalLabelPosition=bottom;labelBackgroundColor=#ffffff;verticalAlign=top;aspect=fixed;imageAspect=0;image=data:image/png,iVBORw0KGgoAAAANSUhEUgAAACoAAABPCAYAAACd+leyAAAC3UlEQVRoBdXaoY4CMRCAYV6FN0AikUgkEolE4pBIJBKJRBIUEolEIpFIZC//JiV73LLdttN2bpLLhlsSPqa70+2U3nw+N7fbzWiPHsjhcGjO57Nqaw/d8/k04/HY7HY7tdgKiu71epnZbGaWy6VK7Btqdev12kyn0wpu/6fh+AcKar/fm9FoVF0SGpAYGqGcuFwuZjAYqKkIX6Fg7/e7morQCgWrpSI4oWBtRVgsFrwsEp2gVrbZbMxkMilSEbyggA+HQ3XdPh4P689y9Iaiul6vFZZjrgiCgqMiUGuPx2MWazAUna0I2+02OTYKanU8KqauCCJQwKkrghgUbMqKIAoFSyXgGUG6IohDwVJjWTWQYalIAgXHtMssxrUrEcmgFkc1oCrERnIoQOosazLqbmhkgYJjBmMmY0YLiWxQcDHPCFmhYEMrQnYo2JCKUARqr1EqAr0E4K4oCgVHd6ZLRSgOBUvfi5msrSKogIKlWcczAv2EplADBceEQK2lU/MZqqDguLHofdEDq4c6qMXRVaxXBLVQwPWKoBoK9nQ6mX6//72bZ4eg5NHOYDzQqM1oHUmy1EK58+tlSiWUu/1z40MdtAmpbuhXq5XhrynUZLQNqSajTJeu/a3iGeWm4bp0RVFoV2TRoafdQyelaxTJKFOi76ZFdmgIMvvQ04AI3WPNltEYZLaM2l9ZqG6S2W2etqVwlzs/6dBLIZMOPcPMOj02kzbbSTJq1+eSGw7i0BRI8aFnnUPDK8VvqMQy+rkYs9eW1FEMSiaZHlOFCPTbOkcSHQ3NgeQLR0FpbUvtzLmyHwx1LcZcH+x7PgiaGxk09GwXSuxtJs2oz2LMF+J6f+ehL4nsPPSh6xxXlnzOOzOqAenMKHs+LMaYx0vH14zGLsakv1gjVBuycehZOrAvmfvXjK4R+JVRycWY64N9z7+hmpHvoU+1zvHNWtv7e/8BWWWU9p/ksrYtKzHnfgC79qpL+UcggAAAAABJRU5ErkJggg==;" vertex="1" parent="1">
          <mxGeometry x="-497" y="319" width="42" height="79" as="geometry" />
        </mxCell>
        <mxCell id="zfGOiNllnzhhjnwTN5HJ-46" style="edgeStyle=orthogonalEdgeStyle;rounded=0;orthogonalLoop=1;jettySize=auto;html=1;exitX=1;exitY=0.75;exitDx=0;exitDy=0;entryX=0;entryY=0;entryDx=0;entryDy=0;" edge="1" parent="1" source="zfGOiNllnzhhjnwTN5HJ-22" target="zfGOiNllnzhhjnwTN5HJ-43">
          <mxGeometry relative="1" as="geometry" />
        </mxCell>
        <mxCell id="zfGOiNllnzhhjnwTN5HJ-22" value="" style="shape=image;verticalLabelPosition=bottom;labelBackgroundColor=#ffffff;verticalAlign=top;aspect=fixed;imageAspect=0;image=data:image/png,iVBORw0KGgoAAAANSUhEUgAAAGYAAAABCAYAAAAsLtuAAAAAGElEQVQoFWMIDQ3dz8DA8H8UD54wAMUJAMpcZxl8z5SBAAAAAElFTkSuQmCC;" vertex="1" parent="1">
          <mxGeometry x="-448" y="-210.36" width="343" height="3.36" as="geometry" />
        </mxCell>
        <mxCell id="zfGOiNllnzhhjnwTN5HJ-27" value="" style="endArrow=none;html=1;entryX=0.5;entryY=0;entryDx=0;entryDy=0;" edge="1" parent="1" target="zfGOiNllnzhhjnwTN5HJ-14">
          <mxGeometry width="50" height="50" relative="1" as="geometry">
            <mxPoint x="-448" y="-320" as="sourcePoint" />
            <mxPoint x="-298" y="-230" as="targetPoint" />
          </mxGeometry>
        </mxCell>
        <mxCell id="zfGOiNllnzhhjnwTN5HJ-28" value="" style="endArrow=none;html=1;entryX=0;entryY=0.5;entryDx=0;entryDy=0;" edge="1" parent="1" target="zfGOiNllnzhhjnwTN5HJ-79">
          <mxGeometry width="50" height="50" relative="1" as="geometry">
            <mxPoint x="-618.5" y="-314.05" as="sourcePoint" />
            <mxPoint x="-548.5" y="-314.05" as="targetPoint" />
            <Array as="points" />
          </mxGeometry>
        </mxCell>
        <mxCell id="zfGOiNllnzhhjnwTN5HJ-29" value="" style="endArrow=none;html=1;exitX=0;exitY=0.5;exitDx=0;exitDy=0;" edge="1" parent="1" source="zfGOiNllnzhhjnwTN5HJ-72" target="zfGOiNllnzhhjnwTN5HJ-70">
          <mxGeometry width="50" height="50" relative="1" as="geometry">
            <mxPoint x="-735.5" y="-313.56" as="sourcePoint" />
            <mxPoint x="-765.5" y="-313.56" as="targetPoint" />
            <Array as="points">
              <mxPoint x="-715.5" y="-313.56" />
              <mxPoint x="-695.5" y="-313.56" />
              <mxPoint x="-705.5" y="-313.56" />
              <mxPoint x="-725.5" y="-313.56" />
            </Array>
          </mxGeometry>
        </mxCell>
        <mxCell id="zfGOiNllnzhhjnwTN5HJ-34" style="edgeStyle=orthogonalEdgeStyle;rounded=0;orthogonalLoop=1;jettySize=auto;html=1;exitX=0;exitY=0;exitDx=0;exitDy=0;entryX=0;entryY=0;entryDx=0;entryDy=0;" edge="1" parent="1">
          <mxGeometry relative="1" as="geometry">
            <mxPoint x="-480" y="-121.5" as="sourcePoint" />
            <mxPoint x="-480" y="-121.5" as="targetPoint" />
          </mxGeometry>
        </mxCell>
        <mxCell id="zfGOiNllnzhhjnwTN5HJ-39" value="" style="shape=image;verticalLabelPosition=bottom;labelBackgroundColor=#ffffff;verticalAlign=top;aspect=fixed;imageAspect=0;image=data:image/png,iVBORw0KGgoAAAANSUhEUgAAAFoAAAA4CAYAAAB9lO9TAAAE8UlEQVR4Ae2b7YrUShCGc1P5k4vJz1xJLmBuQBQViSCoCAFBEATFsEePu8O66ri6juvHGD3KORzxY7WkOl2d6p4k05OMO7NSAyGdpLu6+um3Ks1uJwCP39ejI9j/+AHuvppC/vSRHA0Mbh++gL33M/jv65dGokHjXXbz4NM/cGH3AZx6sCWHB4MzO/dge/aaEayKnaBRxQK4n8C23hxasFtBf/7+zSj59PZfcOfZBKZv30BZlnI0MHg9m8HWwT6c3blnxPn+8/8GditozDekZoQsgP0Etns4NdzwnUa/VtC3ps9NA5wtAe0HGjldGP+t2F15vEucoRU0ri5Q0efH9wVyQ6roEt7VvbFid/Hhjj9onJ0uo/JsXukCekll9hWRgBbQ8+HXV02b0E4ULYoWRas14SaE40nyQVLHyUgdGcRBAIF1hBCnxcaus7MY/Y0hQ8BZrHyPsypNFVkKcZpVvjvPhkbPQEVr0LF2riygGkgIabGZOdYCbanZHctq/V8x6BLKIoUwCCBUqtbOh6G6p5SEE1CkEIc6EsLYnhT+LHCigz/j7ajPONZ27XZFGlZRF8YQNyq6gJT8wegMUyhcRffsmyLheEBTqKKCCIqaCIoAHcplraqiLJ3BOs8UPB052qYCVBI0bdPqT9sgfyyYtX0Fp+WZ8su3bxYxKwZN4Ch1OM4jPO6kmyetwdmhO9eOA+TlstTpqwLttrNSh9Wf4yt75tqwxNLRN6kZz6sB7b4MM3oZOs4b0O4LtEo11YACoJcTd3RusEz91sAXgK7sNL0MHV+7QHv2zf1fDWjzMrRVWHKHdBjNA2Nt2OC4k1iea8eVxMsLQJ9sRS8B2lWfDbBWFeZCq66GGcQZtOXJ6gVspw7LBk38sjm6b9+/L0czdapOanCWQrNYr0IwhYR2quBvd1y98Enkz5pWHXr9bqnWRAOuJtpWHZXf1aTrdbYbXT37pnEPTB0uWLkmsO5ZQLPwduGs8lpAC+g/Kw2JokXRomj5w3+PKJDU0QNan9WIgN5E0DeeP1XbmnAn6ax8t7H/RemjuN/d5tLutmJ36dF48ZYw3ExNu0l3pgcC2jMacGszcbv5Yn8xaNzbSw1wo+PjVy8F9gLYh7O3cFlvcER2Tz6Ui0FjDfwug2DjGUMCE70czQw4K9yNy3+t23ax0tHPH8D3SXNDUm7/5OLaZA/wAyv+6wRNFV/++wkw3+B+XwHcDPjc+D5cf/ZEfZlF3PjZCzRvIOV+BAR0P25Lt2oHnSfOrqQE8qXN928wGUWQYId5AtFoUhmaTECV+L3+XRxry07QZoDo0jEPzoA2OHJIolEF2tw7OYXlQSPwKIIgQIXnkND2AwNhAqOIthhQFLB7VM+KGKpX28M+uKIRvNr3hzfNpPvaXf+EdIK2NzRqGAhIEQCwVEeDpzOOTdfFehQdptxgh9vLk8ACDTipbJLQnrEFlS+qjwa768cM7Z+/1apx3GQgEYY1GUluw9dN8yQCSrMwGUFkqbKeMF7PQDf9zYPm9bvsOiNYy2WnokmFlmdm4DWgtudq8NEI8hZFk32CSme0N0TRrl3LvzVdDAKtwplydBCY9FArnZTcnEvngbTnaABtw4oGX7trosu6bQfNKklxOAEBPZyhlwUB7YVpeCUBPZyhlwUB7YVpeCUBPZyhlwUB7YVpeCUBPZyhl4Vfq1Z1HRC+RH0AAAAASUVORK5CYII=;" vertex="1" parent="1">
          <mxGeometry x="-740" y="-341.15" width="146.5" height="91.15" as="geometry" />
        </mxCell>
        <mxCell id="zfGOiNllnzhhjnwTN5HJ-40" value="" style="shape=image;verticalLabelPosition=bottom;labelBackgroundColor=#ffffff;verticalAlign=top;aspect=fixed;imageAspect=0;image=data:image/png,iVBORw0KGgoAAAANSUhEUgAAAFcAAAA4CAYAAACIamTjAAAE20lEQVR4Ae2bWU7rMBSGvam8dDF5zEqygC4jK+ge8sIgJqEyiEkCgkC8IIFA5+p3cjzVTtLeBtrGSJHbeP78+8Q5nArq+Pv+/qbX11e6v7+n+XweLw+D29tbqqqKPj8/LZrC+uZ8eXt7o6OjI9rb24tXDwYHBwf0+PioKAbhQq0R6mqienh4kIC9cL++vpRi9/f36fLyUq4IpB+vRQZPT090fX1NUC4L8uPjg7xwAZALAWwEugjUx+Tu7k5xwzPKC/fm5kYVwqr4Gor3/MAPDw8lu7OzMz9cnAqgXBSMEP0QQ1xOT08lu+Pj4wg3BGnV+1sNtyxySvOi3lFFSkIISotudRV5IssKkVBedpcfIdyCUiFIpA3c3qeXpl6SU9m7zmoLsBHKLfOUEoCSV0JpXmr7XuaUJm5eSbm6J0gAlKtcs16SNgp16omUigEB/z3cMqfE2J5FCpA8aa1OqMwGqPPktjXhyjYFJXKRSvK2ORblVlVJRQ6FOrbQBLagsDDcUtpUw55a7YzJLDQqE9i6BausBlNDCj2kuuCyKdFpreQRwXVVZm1hS3HuQ6ULrqFcS/Wjg9uos2wmrmywBiif7JYt1XntNrciewFHBBf2Vj/5E0rT2u6q86r51BeCEuPoxWZDPgBdlRfOCUSdf0cF193uu/P9749ilj3cHbAwVRHugIsb4Ua422kuNkq5vb1V7slgQPWt6hHbMJu7xBEpwl1mK5tnXe24CXrLXLjmWVh5wCqq+KUjTRvPmuNxG1jxG2QWHOVKMPoVNvhazAB9HrAmT7ok1csKe9yWWfzVym4uXKmqbm+Z/WpbUWWq2gJfOa7H1YAtY4M3F65S3aK3zASoX4G19wtOd+kBi3BZQbZZcBUZMgtuOUtZEW4b3IC3rGXrW7AjXD/cVm+ZCRe2OeQBi3AZ7u6lG/RAGyHcq6srGZKDCMfn52f9L++BD+DWg2lL++J4ZijYG4iHAF6OckRQ3i5M+jfmYHJDSKkXLmJLGS6C8RAO+RuD2+Y+APbk5ERxe3l58cNFWDTi/BkwUsgdUo+Xn4HJClGi+PMqFxk/Pz9kxumalePncDj/+fk54Uc6rXBlLhG9v7/LkHTEm0aofqgwnRcXF9J0MrdecM3C8fNyBIJmYblmYmkfgU64s0yQyGa+uvY9/PgNd2YZTaa1QbcL9Pg2n9JEhZXWHq9gW9wPpz2a/+0iHXBnlE0yebXjRblpDfd/ZgC4fRbS7GNb4c6nE6lCpHrOc5pO2I+aEaAjXwYxo5CarAkcdeqyRDPKWJ3ugoTgWoqekNwY3I+bNuOR40XeBGND3y39mou1xs8tygWQZiKYHIPgyWAQs6wxGQZII3+WGfWb1bEWyigr52RBxAI2C8ImxwUHytwGp04ZNmmt/a4RqNlUGO7CRGtQ1iBVS364PHGzjrThrFykektgCwTMgrlbRL2LGKabOnDZZrf2q+ax3g9BuBiMOW8GpVKMQyk6ABdb0bHZJuiFqQTgqh0gN0s3XDV2Bm8CX+h0uBsBuLBPbCO5c31Pq6DZ9tQoC6thTAg1ZVl7lbTNFcI+WQTgos36hymCsqw5jXA/nBo2FXZWdqny5EjC/fIU15wG4K65l5E2F+EOuPARboQ7IIEBm47KjXAHJDBg01G5Ee6ABAZs+h9Sk3jCgSJfDgAAAABJRU5ErkJggg==;" vertex="1" parent="1">
          <mxGeometry x="-548.5" y="-338.93" width="98.09" height="63.14" as="geometry" />
        </mxCell>
        <mxCell id="zfGOiNllnzhhjnwTN5HJ-43" value="" style="shape=image;verticalLabelPosition=bottom;labelBackgroundColor=#ffffff;verticalAlign=top;aspect=fixed;imageAspect=0;image=data:image/png,iVBORw0KGgoAAAANSUhEUgAAACoAAABPCAYAAACd+leyAAAC3UlEQVRoBdXaoY4CMRCAYV6FN0AikUgkEolE4pBIJBKJRBIUEolEIpFIZC//JiV73LLdttN2bpLLhlsSPqa70+2U3nw+N7fbzWiPHsjhcGjO57Nqaw/d8/k04/HY7HY7tdgKiu71epnZbGaWy6VK7Btqdev12kyn0wpu/6fh+AcKar/fm9FoVF0SGpAYGqGcuFwuZjAYqKkIX6Fg7/e7morQCgWrpSI4oWBtRVgsFrwsEp2gVrbZbMxkMilSEbyggA+HQ3XdPh4P689y9Iaiul6vFZZjrgiCgqMiUGuPx2MWazAUna0I2+02OTYKanU8KqauCCJQwKkrghgUbMqKIAoFSyXgGUG6IohDwVJjWTWQYalIAgXHtMssxrUrEcmgFkc1oCrERnIoQOosazLqbmhkgYJjBmMmY0YLiWxQcDHPCFmhYEMrQnYo2JCKUARqr1EqAr0E4K4oCgVHd6ZLRSgOBUvfi5msrSKogIKlWcczAv2EplADBceEQK2lU/MZqqDguLHofdEDq4c6qMXRVaxXBLVQwPWKoBoK9nQ6mX6//72bZ4eg5NHOYDzQqM1oHUmy1EK58+tlSiWUu/1z40MdtAmpbuhXq5XhrynUZLQNqSajTJeu/a3iGeWm4bp0RVFoV2TRoafdQyelaxTJKFOi76ZFdmgIMvvQ04AI3WPNltEYZLaM2l9ZqG6S2W2etqVwlzs/6dBLIZMOPcPMOj02kzbbSTJq1+eSGw7i0BRI8aFnnUPDK8VvqMQy+rkYs9eW1FEMSiaZHlOFCPTbOkcSHQ3NgeQLR0FpbUvtzLmyHwx1LcZcH+x7PgiaGxk09GwXSuxtJs2oz2LMF+J6f+ehL4nsPPSh6xxXlnzOOzOqAenMKHs+LMaYx0vH14zGLsakv1gjVBuycehZOrAvmfvXjK4R+JVRycWY64N9z7+hmpHvoU+1zvHNWtv7e/8BWWWU9p/ksrYtKzHnfgC79qpL+UcggAAAAABJRU5ErkJggg==;" vertex="1" parent="1">
          <mxGeometry x="-110" y="-201.68" width="57" height="107.21" as="geometry" />
        </mxCell>
        <mxCell id="zfGOiNllnzhhjnwTN5HJ-48" value="" style="shape=image;verticalLabelPosition=bottom;labelBackgroundColor=#ffffff;verticalAlign=top;aspect=fixed;imageAspect=0;image=data:image/png,iVBORw0KGgoAAAANSUhEUgAAAGYAAAABCAYAAAAsLtuAAAAAGElEQVQoFWMIDQ3dz8DA8H8UD54wAMUJAMpcZxl8z5SBAAAAAElFTkSuQmCC;" vertex="1" parent="1">
          <mxGeometry x="-510" y="-97.72999999999999" width="410" height="4.02" as="geometry" />
        </mxCell>
        <mxCell id="zfGOiNllnzhhjnwTN5HJ-53" value="" style="shape=image;verticalLabelPosition=bottom;labelBackgroundColor=#ffffff;verticalAlign=top;aspect=fixed;imageAspect=0;image=data:image/png,iVBORw0KGgoAAAANSUhEUgAAAD4AAABOCAYAAAB446WFAAADtElEQVR4Ae1aza3DIAzOAB2jK7AO02QYVuHSH6nqpYdeemMIniBxYyiQkuCnNnWkiPeIMf782QSTdpb42u/3tuu6qtuNob468gkqQYOTyO0in4CB14U7OSHkEzDjzPhbKzx5JJJPwKHOoc6hDpuVVEueguQTcI5zjnOOp3Ib+shTkHqC3W73FsMA2LVuDPVFXpZSA1iqn4Ev9dy3jmPGv5W5pXYz40s9963jmHEq5vhcvbJKoyIC9JKHOt6K1vwNBlK1DJzMs5UhDlFBZQ/oZcbBE61bYLC2bW1HrI8Zjz3S6v9apkG+1fw5Pcx4zjNr+4HB2nbtvHPjmfE5Dy19Xss0yC+d791xzPi7nqqVAwZr29p5auXJGf/oc/XH42Fvt9tP3Pf73QeHZ9yBPhwOP3FfLhcG7kPcMX4+n60xZpP39Xr1EZ1kfA646sX4AVDYXhccpKSXk6ogU+lgJd33dWlV5TggcgVwZaU7VBC91XOTbwe4tr3Av2gYPK97acXzhEVY2eshTWLgurcSxgs5RYvu/Xgh5fgc6TDGaogwIa2MGc/pzJDSjnFv9BTyQShi4ADOO0XbQG58NkQROHcM52DcGG0Q6sGzSCc5cD+Btqp3bEa5j4APrE0OMuiZCQCYwCnxOOyw+Fmgkxz4ky1pewVeHwEicM9wfabEkDLCRUAF8EEPpBg4GqdfZ71OauCx1zEjmIFYDlZZ31YAx/qLOv8HeGf9K0tDDr4yHrMaGF0AHo4D/an8h0UQpVMCfLvFzcBi5MJNWCmH8POOQKHumVXR6g/v9xLwuVU9pzMB2tmwAni7zUgQ7hlDW8sw8FSRMrdlbc3Cf+pjxplxa8tl6bjyhmdm4Z56dcjGbwGCBa8+1KNXjgOp/Kur/N5c7YzG4JsAxzszBzBbpRkoZcVYxUmrYLMjUF8f1e/Zyiulz/itb7L6Q85rAhxvH4cd1sR+8AyAQ1XlDYl2Ya4Ph3oQYVADjDu2lL6i/LT3WAw8zPHOCqnQgUSmSgNDpULHWSNw3IeAB1va2CkJfWX5BsBx5aNHQ3GF1bkDhrhKSxhqUn0vwMOqyzl9mP/VaQPwnHxj4Nj42OPJUMfsvgV8Sp1wkcwBz8k3Bo4ZB48nq7QUyFQfYjysyuLK6xV4Wb4B8HyOF6q0FMhUHwY+5nVwlgfVXGpsUX4NcKd4A3f9qr4B0I64IvDj8egFnNDW7tPplP+S8gsfDpOfkH4OeO2vCbYgT/6LiE91EgP/VGao7GLGqTz7qXr/AG8WS28usJptAAAAAElFTkSuQmCC;" vertex="1" parent="1">
          <mxGeometry x="-444" y="-130.31" width="62" height="78" as="geometry" />
        </mxCell>
        <mxCell id="zfGOiNllnzhhjnwTN5HJ-63" value="zwemvaardigheid" style="rounded=0;whiteSpace=wrap;html=1;strokeWidth=1;fillColor=#FFFFFF;" vertex="1" parent="1">
          <mxGeometry x="-293.5" y="-86.91" width="93.5" height="46.91" as="geometry" />
        </mxCell>
        <mxCell id="zfGOiNllnzhhjnwTN5HJ-67" value="zwemmende ploeg" style="rounded=0;whiteSpace=wrap;html=1;strokeWidth=1;fillColor=#FFFFFF;" vertex="1" parent="1">
          <mxGeometry x="-583" y="-106.31" width="73" height="30" as="geometry" />
        </mxCell>
        <mxCell id="zfGOiNllnzhhjnwTN5HJ-69" value="Zwemvest functioneert niet goed" style="rounded=0;whiteSpace=wrap;html=1;strokeWidth=1;fillColor=#FFFFFF;" vertex="1" parent="1">
          <mxGeometry x="-599" y="52.68000000000001" width="117" height="46.32" as="geometry" />
        </mxCell>
        <mxCell id="zfGOiNllnzhhjnwTN5HJ-70" value="" style="rounded=0;whiteSpace=wrap;html=1;strokeWidth=1;fillColor=#FFFFFF;" vertex="1" parent="1">
          <mxGeometry x="-881.5" y="-338.93" width="107" height="50.77" as="geometry" />
        </mxCell>
        <mxCell id="zfGOiNllnzhhjnwTN5HJ-71" value="Zwemvest in slechte staat" style="rounded=0;whiteSpace=wrap;html=1;strokeWidth=1;fillColor=#FFFFFF;" vertex="1" parent="1">
          <mxGeometry x="-772.94" y="39.74000000000001" width="102" height="45.89" as="geometry" />
        </mxCell>
        <mxCell id="zfGOiNllnzhhjnwTN5HJ-72" value="Zwemmen gezien als onvermijdelijk door contractor" style="rounded=0;whiteSpace=wrap;html=1;strokeWidth=1;fillColor=#FFFFFF;" vertex="1" parent="1">
          <mxGeometry x="-726.5300000000001" y="-335.49" width="119.57" height="47.33" as="geometry" />
        </mxCell>
        <mxCell id="zfGOiNllnzhhjnwTN5HJ-77" value="Vervoer andere zijde rivier" style="rounded=0;whiteSpace=wrap;html=1;strokeWidth=1;fillColor=#FFFFFF;" vertex="1" parent="1">
          <mxGeometry x="-307.5" y="-195.36" width="67.5" height="55.36" as="geometry" />
        </mxCell>
        <mxCell id="zfGOiNllnzhhjnwTN5HJ-78" value="Verdronken persoon" style="rounded=0;whiteSpace=wrap;html=1;strokeWidth=1;fillColor=#FFFFFF;" vertex="1" parent="1">
          <mxGeometry x="-53" y="-183.18" width="77" height="31" as="geometry" />
        </mxCell>
        <mxCell id="zfGOiNllnzhhjnwTN5HJ-79" value="Geen adequate procedure" style="rounded=0;whiteSpace=wrap;html=1;strokeWidth=1;fillColor=#FFFFFF;" vertex="1" parent="1">
          <mxGeometry x="-541" y="-329.99" width="93" height="32.88" as="geometry" />
        </mxCell>
        <mxCell id="zfGOiNllnzhhjnwTN5HJ-80" value="Snelle stroming water" style="rounded=0;whiteSpace=wrap;html=1;strokeWidth=1;fillColor=#FFFFFF;" vertex="1" parent="1">
          <mxGeometry x="-524.5" y="-230" width="80" height="39.15" as="geometry" />
        </mxCell>
        <mxCell id="zfGOiNllnzhhjnwTN5HJ-81" value="" style="rounded=0;whiteSpace=wrap;html=1;strokeWidth=1;fillColor=#FFFFFF;" vertex="1" parent="1">
          <mxGeometry x="-930" y="39.74000000000001" width="97" height="42.21" as="geometry" />
        </mxCell>
        <mxCell id="zfGOiNllnzhhjnwTN5HJ-83" value="Procedure oversteken rivier" style="rounded=0;whiteSpace=wrap;html=1;strokeWidth=1;fillColor=#FFFFFF;" vertex="1" parent="1">
          <mxGeometry x="-400" y="-192" width="80" height="40" as="geometry" />
        </mxCell>
        <mxCell id="zfGOiNllnzhhjnwTN5HJ-91" value="S" style="shape=image;verticalLabelPosition=bottom;labelBackgroundColor=#ffffff;verticalAlign=top;aspect=fixed;imageAspect=0;image=data:image/png,iVBORw0KGgoAAAANSUhEUgAAAFEAAAAwCAYAAABpJ5bJAAAECElEQVRoBe2ZLVP0MBDHg0MiEQjECSSmHolEojJIPgaiM3wMJHVIPgITDBIJvgJ5cp/ZNpsm27x2+twxRzrD5NrbbHZ/+WeTcmKz2YAQov4tZKD5VYAriKhCrBAXLsMVwNkl0FXi+/s79H1f/wIMkI9nAlyIFWBaQBViQGEl4qkQK8T0UitR1FLbqsSqxKrEgzk21eVcl/NBLecOpH7dkp0nsU7qU72EboWZX7qLZvVbEOtKy7lCZCCXvPZViHuCqKCTjfPy3sgWlFnu08SwAEGIBlpFZSPXTwNtK6EZyo6ETvdX5pkA0Ujo2vLSM4+P/Sspq470U8K5NbGTruJNILLTR5/Jp/nOxDZBXOSnGSdLte4kuuPk12+335CXm1wpRI9DS20UGAFyFTH2JRtSmm5NwRcgZqBjfmissR8qXQ0qnD/vewVtQ/kH4jArZYrPkzM5Gdv/A5ECUNB1LUhnWXuCV61ehrjk7CWf42eC5awS45ONZyaLPffAIzarQ3QCpYFngc3r2BQID36CMAeY44f6TyVgSH4Wk56QEFzKxdNOsRsBmg/DMiTa8ZYCFZAF0STQgGw7UEpBT88cpU1+heBw+6mPiPkhHwyigcWeUxy+8TwAkcteIJqCjrvhEJiCljYaA9GuTyxRnUyenwBEazPEGjucClT3O2pimRJd1Y8zqsEaRfhs9OYStaEJCkHswUyC2fXtsag/1d1wuxcl4hKYnc8USzYKaNqhk36M4kJqprPj3s+J4VmK19LD6LeSEg8DxtIJrxADO24J0AqxQvwdZaQqsSqxKvHv/Nr3/f19MMmW7Li5tsgnWRM9Br5O9Zl+dTw7O0MW4/vj5eUlbLdboOv19TUK6vr62rF/fn7eqz3m8fDwQOEP7dPTUzSmUvtIzgLOz8/h5+fHBPDx8QHHx8fBABC4bY/AY/ZXV1cO8LXtdwEwkbOAr68vAxA/n5ycBAFeXFw4AEuBv729RYHzYFP2uwCYkbMwAFFdqEpa4rzF72zgn5+fUeA+hccmqNR+FwAzcx4hYj1EFXBwdH96euoARJg4AH3PWz442qMPbkf3pfbYj9e0VB0vtS/IeYSIRZMS4i2qB5ctXahYlDi3o3u0R5XSlQJeao/j+IDE6nKpfWHOAu7u7oJAMDCsS3SlFIv2HHhM4aX2uwBYmrM54pCK7Bad4RKhCwHGFOuzTwHk/mP2uwLIY4rlrHnZvzO4n/HsZ1+3t7dBxaKzl5cXY54CvsS+dEmW2mNMpTlHIeJB1b7u7++jALn9zc3NqvYcSOroU2qPMHgOqZw1QMzTVR/ePz4+2vyGIu6zo2fcPlZjff5T9hwI1lws/DQ+b0vtfTGhD+43eH90dJRv7AEedPxHbJHfPxr+u5GTuz3nAAAAAElFTkSuQmCC;" vertex="1" parent="1">
          <mxGeometry x="-720" y="450" width="81" height="48" as="geometry" />
        </mxCell>
        <mxCell id="zfGOiNllnzhhjnwTN5HJ-95" value="" style="endArrow=none;html=1;" edge="1" parent="1">
          <mxGeometry width="50" height="50" relative="1" as="geometry">
            <mxPoint x="-670.94" y="65.13" as="sourcePoint" />
            <mxPoint x="-590.9399999999999" y="65.13" as="targetPoint" />
          </mxGeometry>
        </mxCell>
        <mxCell id="zfGOiNllnzhhjnwTN5HJ-96" value="" style="endArrow=none;html=1;" edge="1" parent="1">
          <mxGeometry width="50" height="50" relative="1" as="geometry">
            <mxPoint x="-833" y="65.13" as="sourcePoint" />
            <mxPoint x="-783" y="65.13" as="targetPoint" />
          </mxGeometry>
        </mxCell>
        <mxCell id="zfGOiNllnzhhjnwTN5HJ-99" value="Gebruik zwemvest" style="rounded=0;whiteSpace=wrap;html=1;strokeWidth=1;fillColor=#FFFFFF;" vertex="1" parent="1">
          <mxGeometry x="-455" y="-90.71" width="84" height="43.71" as="geometry" />
        </mxCell>
        <mxCell id="zfGOiNllnzhhjnwTN5HJ-111" value="" style="endArrow=none;html=1;entryX=0.5;entryY=1;entryDx=0;entryDy=0;exitX=1;exitY=0.5;exitDx=0;exitDy=0;" edge="1" parent="1" source="zfGOiNllnzhhjnwTN5HJ-69" target="zfGOiNllnzhhjnwTN5HJ-99">
          <mxGeometry width="50" height="50" relative="1" as="geometry">
            <mxPoint x="-470" y="80" as="sourcePoint" />
            <mxPoint x="-420" y="30" as="targetPoint" />
          </mxGeometry>
        </mxCell>
        <mxCell id="zfGOiNllnzhhjnwTN5HJ-112" value="" style="shape=image;verticalLabelPosition=bottom;labelBackgroundColor=#ffffff;verticalAlign=top;aspect=fixed;imageAspect=0;image=data:image/png,iVBORw0KGgoAAAANSUhEUgAAAFgAAAA4CAYAAAB5YT9uAAAFh0lEQVR4Ae2bP4zfNBTHM1SiGzchlkqMDEjHQKTq14WRsSNTxBQxMjIwRmLo8ts6IibSiaElVw6O/lE5KapKW2jLn/SfqmuPNkMFElCBqoee7efYPjs/JwRdDl6kyImf7Tgff/PivJ9/CURsf/71FB7ufgI3f3gPti+/ybuHwbe33oX7D07Cb7/fs4gm1pnnZPfxp7B5/mU4/XnCewSDz744DM3dDzXJXsCoWgY7Tljf//S+gBwE/OzZrlbumc0X4Np3H8DOw2+gbVvePQx2f74NN26dgI0vX9Si/OXXqxAEjP6E1ItwGWycsJo7pzQ3fGcFAV+78Y4uiKPDgOMAI6fNc0cEuwvbr4cB42wBFXz2q5cYrscl9AnuwvYxwW7r4iurAeNo9DXGtr3K3mfAJWRJAklWDh64uiwgK4bXc0UwVTtuu3R+QAGPHxi6cZlO1c5e5dJ1Zg24LjJIUeFiTyEramjbGoqU8hJI0gJq9It1ARnlpxkUtbrpuhBtpFmm7CvaGehjCWQonS9gASbVoMoMoWZQCgCO8giiGgCrrLLJgaDBCbQzMVyEPl/A4mZrKAtUZqpVLJVpA64LtHeD0ZaZKJ+VUtn4FKQCfgsW/NZuJ6TCf5I/X8BaeRkUZa3AEEQbjARsuA3lVgRUS90MWM8mXFX2Kc8taymOAfunaaRK+ZgrxWo3YCsYX3CmG7CAO7a+gbIGZiJ/PA8XoWcK8jGX/pJeSJiXQpZJPyyAty3QAOgXX+nMOND/IqRewJ52JgJLg7XPgMPzR+rgQU8Z8MSKdQXBgBnwwXYjrOD/m4JL8VUmZw46nuCDYH6t+ewzyZuZgtX8lgI4fZAY8FDfac57UcEyIOOPqLVgxRtwIAZH04b2b1z5eStYfCRQ/MGJI5gKtj4mKG6hImbK5o+mjYPmTsX6zucNWLiIQETNAGx9GmMdw7bqS64PzhS2eQPW6vNE1AyI3Wez/NSWAXoVorTU7TwFfT5+ItusAbvKtAI1ewB3rsRSHgM2/aA9iyBleiNqBmDXDVgDw4DDgO3f35yImglY+V3r97vIaJql9oncgtnmzFyECfu/ccyA/wXVDlbw5avHxfIfXFn55MmO/lnHbIiP/U/c1sXXBLtzl14NL53CRcS0uvLH5mMGHKl6XOJL3K5cfzsMGNe2UkFcAHj33gZDXgH50aObcP7rNzS3BzsfhQHj8mz83wFBxhSljw6cdz8DkxWuTsUtuD4Yjc+f/wHmOmGzAT4O/7XgUn0U8I9DKwGLEgDwuN0A9Ce43pXB+sGe3VqD+spb4p9GxC0asFmBj4cR6HURw5qaf+n19XW13s0OEGGgCG2r7HiHoTKY79vCgKscFsvGV2dvXtNAZMmurq9Os4SFsyAl2AfqH6Vdy8EjBBmau1M0rs+ODYfawHzf5s/FktEdryBfLAcCDtRBwHnl62c4L7qfYTgIdR6ALYUtAAXeLBeycwJMBTkpkKBXue58kuSA+Ow6BrsQYM91tQAIMKWqfdmdHBYL7B9etwqqb0aAO1eAkKTYOjV2ecYTgICVKjt7V8fAi+QdFyEHBAx3otsgoG7qADavHXq85wMYGlguuheEC7jKO5t45LAAATBvHHoAq8GwwPuuS+26qXkdsonxln3r87GrBgD7FCqD+b7Nn4sljc5RxSqXbkGak34Fd5X0y1KrbyBg73Wpf26qYIpxIpuCHoKzbwrGDuldqZHO85xmGUrV8o46H5wkEqxzk1KgZh0aCUHB/5Iz/Li+LrVLKQ6a6i/6XRcwQAWHDx3q7se8tySBtbU1sdP9uSnaccPUteE52Y27EYdhBbsl+XwUAQY8Clt8JQYcz2pUSQY8Clt8JQYcz2pUSQY8Clt8JQYcz2pUSQY8Clt8pb8BC80AeGPiQ8YAAAAASUVORK5CYII=;" vertex="1" parent="1">
          <mxGeometry x="-959.46" y="195" width="113.47" height="72.21" as="geometry" />
        </mxCell>
        <mxCell id="zfGOiNllnzhhjnwTN5HJ-113" value="" style="shape=image;verticalLabelPosition=bottom;labelBackgroundColor=#ffffff;verticalAlign=top;aspect=fixed;imageAspect=0;image=data:image/png,iVBORw0KGgoAAAANSUhEUgAAAFoAAAA4CAYAAAB9lO9TAAAE8UlEQVR4Ae2b7YrUShCGc1P5k4vJz1xJLmBuQBQViSCoCAFBEATFsEePu8O66ri6juvHGD3KORzxY7WkOl2d6p4k05OMO7NSAyGdpLu6+um3Ks1uJwCP39ejI9j/+AHuvppC/vSRHA0Mbh++gL33M/jv65dGokHjXXbz4NM/cGH3AZx6sCWHB4MzO/dge/aaEayKnaBRxQK4n8C23hxasFtBf/7+zSj59PZfcOfZBKZv30BZlnI0MHg9m8HWwT6c3blnxPn+8/8GditozDekZoQsgP0Etns4NdzwnUa/VtC3ps9NA5wtAe0HGjldGP+t2F15vEucoRU0ri5Q0efH9wVyQ6roEt7VvbFid/Hhjj9onJ0uo/JsXukCekll9hWRgBbQ8+HXV02b0E4ULYoWRas14SaE40nyQVLHyUgdGcRBAIF1hBCnxcaus7MY/Y0hQ8BZrHyPsypNFVkKcZpVvjvPhkbPQEVr0LF2riygGkgIabGZOdYCbanZHctq/V8x6BLKIoUwCCBUqtbOh6G6p5SEE1CkEIc6EsLYnhT+LHCigz/j7ajPONZ27XZFGlZRF8YQNyq6gJT8wegMUyhcRffsmyLheEBTqKKCCIqaCIoAHcplraqiLJ3BOs8UPB052qYCVBI0bdPqT9sgfyyYtX0Fp+WZ8su3bxYxKwZN4Ch1OM4jPO6kmyetwdmhO9eOA+TlstTpqwLttrNSh9Wf4yt75tqwxNLRN6kZz6sB7b4MM3oZOs4b0O4LtEo11YACoJcTd3RusEz91sAXgK7sNL0MHV+7QHv2zf1fDWjzMrRVWHKHdBjNA2Nt2OC4k1iea8eVxMsLQJ9sRS8B2lWfDbBWFeZCq66GGcQZtOXJ6gVspw7LBk38sjm6b9+/L0czdapOanCWQrNYr0IwhYR2quBvd1y98Enkz5pWHXr9bqnWRAOuJtpWHZXf1aTrdbYbXT37pnEPTB0uWLkmsO5ZQLPwduGs8lpAC+g/Kw2JokXRomj5w3+PKJDU0QNan9WIgN5E0DeeP1XbmnAn6ax8t7H/RemjuN/d5tLutmJ36dF48ZYw3ExNu0l3pgcC2jMacGszcbv5Yn8xaNzbSw1wo+PjVy8F9gLYh7O3cFlvcER2Tz6Ui0FjDfwug2DjGUMCE70czQw4K9yNy3+t23ax0tHPH8D3SXNDUm7/5OLaZA/wAyv+6wRNFV/++wkw3+B+XwHcDPjc+D5cf/ZEfZlF3PjZCzRvIOV+BAR0P25Lt2oHnSfOrqQE8qXN928wGUWQYId5AtFoUhmaTECV+L3+XRxry07QZoDo0jEPzoA2OHJIolEF2tw7OYXlQSPwKIIgQIXnkND2AwNhAqOIthhQFLB7VM+KGKpX28M+uKIRvNr3hzfNpPvaXf+EdIK2NzRqGAhIEQCwVEeDpzOOTdfFehQdptxgh9vLk8ACDTipbJLQnrEFlS+qjwa768cM7Z+/1apx3GQgEYY1GUluw9dN8yQCSrMwGUFkqbKeMF7PQDf9zYPm9bvsOiNYy2WnokmFlmdm4DWgtudq8NEI8hZFk32CSme0N0TRrl3LvzVdDAKtwplydBCY9FArnZTcnEvngbTnaABtw4oGX7trosu6bQfNKklxOAEBPZyhlwUB7YVpeCUBPZyhlwUB7YVpeCUBPZyhlwUB7YVpeCUBPZyhl4Vfq1Z1HRC+RH0AAAAASUVORK5CYII=;" vertex="1" parent="1">
          <mxGeometry x="-811.11" y="190" width="132.12" height="82.21" as="geometry" />
        </mxCell>
        <mxCell id="zfGOiNllnzhhjnwTN5HJ-114" value="" style="shape=image;verticalLabelPosition=bottom;labelBackgroundColor=#ffffff;verticalAlign=top;aspect=fixed;imageAspect=0;image=data:image/png,iVBORw0KGgoAAAANSUhEUgAAAFcAAAA4CAYAAACIamTjAAAE20lEQVR4Ae2bWU7rMBSGvam8dDF5zEqygC4jK+ge8sIgJqEyiEkCgkC8IIFA5+p3cjzVTtLeBtrGSJHbeP78+8Q5nArq+Pv+/qbX11e6v7+n+XweLw+D29tbqqqKPj8/LZrC+uZ8eXt7o6OjI9rb24tXDwYHBwf0+PioKAbhQq0R6mqienh4kIC9cL++vpRi9/f36fLyUq4IpB+vRQZPT090fX1NUC4L8uPjg7xwAZALAWwEugjUx+Tu7k5xwzPKC/fm5kYVwqr4Gor3/MAPDw8lu7OzMz9cnAqgXBSMEP0QQ1xOT08lu+Pj4wg3BGnV+1sNtyxySvOi3lFFSkIISotudRV5IssKkVBedpcfIdyCUiFIpA3c3qeXpl6SU9m7zmoLsBHKLfOUEoCSV0JpXmr7XuaUJm5eSbm6J0gAlKtcs16SNgp16omUigEB/z3cMqfE2J5FCpA8aa1OqMwGqPPktjXhyjYFJXKRSvK2ORblVlVJRQ6FOrbQBLagsDDcUtpUw55a7YzJLDQqE9i6BausBlNDCj2kuuCyKdFpreQRwXVVZm1hS3HuQ6ULrqFcS/Wjg9uos2wmrmywBiif7JYt1XntNrciewFHBBf2Vj/5E0rT2u6q86r51BeCEuPoxWZDPgBdlRfOCUSdf0cF193uu/P9749ilj3cHbAwVRHugIsb4Ua422kuNkq5vb1V7slgQPWt6hHbMJu7xBEpwl1mK5tnXe24CXrLXLjmWVh5wCqq+KUjTRvPmuNxG1jxG2QWHOVKMPoVNvhazAB9HrAmT7ok1csKe9yWWfzVym4uXKmqbm+Z/WpbUWWq2gJfOa7H1YAtY4M3F65S3aK3zASoX4G19wtOd+kBi3BZQbZZcBUZMgtuOUtZEW4b3IC3rGXrW7AjXD/cVm+ZCRe2OeQBi3AZ7u6lG/RAGyHcq6srGZKDCMfn52f9L++BD+DWg2lL++J4ZijYG4iHAF6OckRQ3i5M+jfmYHJDSKkXLmJLGS6C8RAO+RuD2+Y+APbk5ERxe3l58cNFWDTi/BkwUsgdUo+Xn4HJClGi+PMqFxk/Pz9kxumalePncDj/+fk54Uc6rXBlLhG9v7/LkHTEm0aofqgwnRcXF9J0MrdecM3C8fNyBIJmYblmYmkfgU64s0yQyGa+uvY9/PgNd2YZTaa1QbcL9Pg2n9JEhZXWHq9gW9wPpz2a/+0iHXBnlE0yebXjRblpDfd/ZgC4fRbS7GNb4c6nE6lCpHrOc5pO2I+aEaAjXwYxo5CarAkcdeqyRDPKWJ3ugoTgWoqekNwY3I+bNuOR40XeBGND3y39mou1xs8tygWQZiKYHIPgyWAQs6wxGQZII3+WGfWb1bEWyigr52RBxAI2C8ImxwUHytwGp04ZNmmt/a4RqNlUGO7CRGtQ1iBVS364PHGzjrThrFykektgCwTMgrlbRL2LGKabOnDZZrf2q+ax3g9BuBiMOW8GpVKMQyk6ABdb0bHZJuiFqQTgqh0gN0s3XDV2Bm8CX+h0uBsBuLBPbCO5c31Pq6DZ9tQoC6thTAg1ZVl7lbTNFcI+WQTgos36hymCsqw5jXA/nBo2FXZWdqny5EjC/fIU15wG4K65l5E2F+EOuPARboQ7IIEBm47KjXAHJDBg01G5Ee6ABAZs+h9Sk3jCgSJfDgAAAABJRU5ErkJggg==;" vertex="1" parent="1">
          <mxGeometry x="-635.0699999999999" y="205.26" width="138.07" height="88.87" as="geometry" />
        </mxCell>
        <mxCell id="zfGOiNllnzhhjnwTN5HJ-115" value="Zwemvaardigheid was onvoldoende" style="rounded=0;whiteSpace=wrap;html=1;strokeWidth=1;fillColor=#FFFFFF;" vertex="1" parent="1">
          <mxGeometry x="-621.99" y="207.94" width="117" height="46.32" as="geometry" />
        </mxCell>
        <mxCell id="zfGOiNllnzhhjnwTN5HJ-116" value="Geen zwemtraining gehad" style="rounded=0;whiteSpace=wrap;html=1;strokeWidth=1;fillColor=#FFFFFF;" vertex="1" parent="1">
          <mxGeometry x="-795.9300000000001" y="195" width="102" height="45.89" as="geometry" />
        </mxCell>
        <mxCell id="zfGOiNllnzhhjnwTN5HJ-117" value="" style="rounded=0;whiteSpace=wrap;html=1;strokeWidth=1;fillColor=#FFFFFF;" vertex="1" parent="1">
          <mxGeometry x="-952.99" y="195" width="97" height="42.21" as="geometry" />
        </mxCell>
        <mxCell id="zfGOiNllnzhhjnwTN5HJ-118" value="" style="endArrow=none;html=1;" edge="1" parent="1">
          <mxGeometry width="50" height="50" relative="1" as="geometry">
            <mxPoint x="-693.9300000000001" y="220.3900000000001" as="sourcePoint" />
            <mxPoint x="-613.9300000000001" y="220.3900000000001" as="targetPoint" />
          </mxGeometry>
        </mxCell>
        <mxCell id="zfGOiNllnzhhjnwTN5HJ-119" value="" style="endArrow=none;html=1;" edge="1" parent="1">
          <mxGeometry width="50" height="50" relative="1" as="geometry">
            <mxPoint x="-855.99" y="220.3900000000001" as="sourcePoint" />
            <mxPoint x="-805.99" y="220.3900000000001" as="targetPoint" />
          </mxGeometry>
        </mxCell>
        <mxCell id="zfGOiNllnzhhjnwTN5HJ-121" value="" style="endArrow=none;html=1;entryX=0.407;entryY=1.073;entryDx=0;entryDy=0;entryPerimeter=0;exitX=1;exitY=0.25;exitDx=0;exitDy=0;" edge="1" parent="1" source="zfGOiNllnzhhjnwTN5HJ-114" target="zfGOiNllnzhhjnwTN5HJ-63">
          <mxGeometry width="50" height="50" relative="1" as="geometry">
            <mxPoint x="-450" y="230" as="sourcePoint" />
            <mxPoint x="-400" y="180" as="targetPoint" />
          </mxGeometry>
        </mxCell>
        <mxCell id="zfGOiNllnzhhjnwTN5HJ-122" value="" style="shape=image;verticalLabelPosition=bottom;labelBackgroundColor=#ffffff;verticalAlign=top;aspect=fixed;imageAspect=0;image=data:image/png,iVBORw0KGgoAAAANSUhEUgAAAFgAAAA4CAYAAAB5YT9uAAAFh0lEQVR4Ae2bP4zfNBTHM1SiGzchlkqMDEjHQKTq14WRsSNTxBQxMjIwRmLo8ts6IibSiaElVw6O/lE5KapKW2jLn/SfqmuPNkMFElCBqoee7efYPjs/JwRdDl6kyImf7Tgff/PivJ9/CURsf/71FB7ufgI3f3gPti+/ybuHwbe33oX7D07Cb7/fs4gm1pnnZPfxp7B5/mU4/XnCewSDz744DM3dDzXJXsCoWgY7Tljf//S+gBwE/OzZrlbumc0X4Np3H8DOw2+gbVvePQx2f74NN26dgI0vX9Si/OXXqxAEjP6E1ItwGWycsJo7pzQ3fGcFAV+78Y4uiKPDgOMAI6fNc0cEuwvbr4cB42wBFXz2q5cYrscl9AnuwvYxwW7r4iurAeNo9DXGtr3K3mfAJWRJAklWDh64uiwgK4bXc0UwVTtuu3R+QAGPHxi6cZlO1c5e5dJ1Zg24LjJIUeFiTyEramjbGoqU8hJI0gJq9It1ARnlpxkUtbrpuhBtpFmm7CvaGehjCWQonS9gASbVoMoMoWZQCgCO8giiGgCrrLLJgaDBCbQzMVyEPl/A4mZrKAtUZqpVLJVpA64LtHeD0ZaZKJ+VUtn4FKQCfgsW/NZuJ6TCf5I/X8BaeRkUZa3AEEQbjARsuA3lVgRUS90MWM8mXFX2Kc8taymOAfunaaRK+ZgrxWo3YCsYX3CmG7CAO7a+gbIGZiJ/PA8XoWcK8jGX/pJeSJiXQpZJPyyAty3QAOgXX+nMOND/IqRewJ52JgJLg7XPgMPzR+rgQU8Z8MSKdQXBgBnwwXYjrOD/m4JL8VUmZw46nuCDYH6t+ewzyZuZgtX8lgI4fZAY8FDfac57UcEyIOOPqLVgxRtwIAZH04b2b1z5eStYfCRQ/MGJI5gKtj4mKG6hImbK5o+mjYPmTsX6zucNWLiIQETNAGx9GmMdw7bqS64PzhS2eQPW6vNE1AyI3Wez/NSWAXoVorTU7TwFfT5+ItusAbvKtAI1ewB3rsRSHgM2/aA9iyBleiNqBmDXDVgDw4DDgO3f35yImglY+V3r97vIaJql9oncgtnmzFyECfu/ccyA/wXVDlbw5avHxfIfXFn55MmO/lnHbIiP/U/c1sXXBLtzl14NL53CRcS0uvLH5mMGHKl6XOJL3K5cfzsMGNe2UkFcAHj33gZDXgH50aObcP7rNzS3BzsfhQHj8mz83wFBxhSljw6cdz8DkxWuTsUtuD4Yjc+f/wHmOmGzAT4O/7XgUn0U8I9DKwGLEgDwuN0A9Ce43pXB+sGe3VqD+spb4p9GxC0asFmBj4cR6HURw5qaf+n19XW13s0OEGGgCG2r7HiHoTKY79vCgKscFsvGV2dvXtNAZMmurq9Os4SFsyAl2AfqH6Vdy8EjBBmau1M0rs+ODYfawHzf5s/FktEdryBfLAcCDtRBwHnl62c4L7qfYTgIdR6ALYUtAAXeLBeycwJMBTkpkKBXue58kuSA+Ow6BrsQYM91tQAIMKWqfdmdHBYL7B9etwqqb0aAO1eAkKTYOjV2ecYTgICVKjt7V8fAi+QdFyEHBAx3otsgoG7qADavHXq85wMYGlguuheEC7jKO5t45LAAATBvHHoAq8GwwPuuS+26qXkdsonxln3r87GrBgD7FCqD+b7Nn4sljc5RxSqXbkGak34Fd5X0y1KrbyBg73Wpf26qYIpxIpuCHoKzbwrGDuldqZHO85xmGUrV8o46H5wkEqxzk1KgZh0aCUHB/5Iz/Li+LrVLKQ6a6i/6XRcwQAWHDx3q7se8tySBtbU1sdP9uSnaccPUteE52Y27EYdhBbsl+XwUAQY8Clt8JQYcz2pUSQY8Clt8JQYcz2pUSQY8Clt8JQYcz2pUSQY8Clt8pb8BC80AeGPiQ8YAAAAASUVORK5CYII=;" vertex="1" parent="1">
          <mxGeometry x="-881.5" y="-510" width="127.86" height="81.37" as="geometry" />
        </mxCell>
        <mxCell id="zfGOiNllnzhhjnwTN5HJ-123" value="" style="endArrow=none;html=1;entryX=0;entryY=0.5;entryDx=0;entryDy=0;" edge="1" target="zfGOiNllnzhhjnwTN5HJ-128" parent="1">
          <mxGeometry width="50" height="50" relative="1" as="geometry">
            <mxPoint x="-608.07" y="-485.1200000000002" as="sourcePoint" />
            <mxPoint x="-538.07" y="-485.12" as="targetPoint" />
            <Array as="points" />
          </mxGeometry>
        </mxCell>
        <mxCell id="zfGOiNllnzhhjnwTN5HJ-124" value="" style="endArrow=none;html=1;exitX=0;exitY=0.5;exitDx=0;exitDy=0;" edge="1" source="zfGOiNllnzhhjnwTN5HJ-127" target="zfGOiNllnzhhjnwTN5HJ-126" parent="1">
          <mxGeometry width="50" height="50" relative="1" as="geometry">
            <mxPoint x="-725.07" y="-484.63" as="sourcePoint" />
            <mxPoint x="-755.07" y="-484.63" as="targetPoint" />
            <Array as="points">
              <mxPoint x="-705.07" y="-484.63" />
              <mxPoint x="-685.07" y="-484.63" />
              <mxPoint x="-695.07" y="-484.63" />
              <mxPoint x="-715.07" y="-484.63" />
            </Array>
          </mxGeometry>
        </mxCell>
        <mxCell id="zfGOiNllnzhhjnwTN5HJ-125" value="" style="shape=image;verticalLabelPosition=bottom;labelBackgroundColor=#ffffff;verticalAlign=top;aspect=fixed;imageAspect=0;image=data:image/png,iVBORw0KGgoAAAANSUhEUgAAAFcAAAA4CAYAAACIamTjAAAE20lEQVR4Ae2bWU7rMBSGvam8dDF5zEqygC4jK+ge8sIgJqEyiEkCgkC8IIFA5+p3cjzVTtLeBtrGSJHbeP78+8Q5nArq+Pv+/qbX11e6v7+n+XweLw+D29tbqqqKPj8/LZrC+uZ8eXt7o6OjI9rb24tXDwYHBwf0+PioKAbhQq0R6mqienh4kIC9cL++vpRi9/f36fLyUq4IpB+vRQZPT090fX1NUC4L8uPjg7xwAZALAWwEugjUx+Tu7k5xwzPKC/fm5kYVwqr4Gor3/MAPDw8lu7OzMz9cnAqgXBSMEP0QQ1xOT08lu+Pj4wg3BGnV+1sNtyxySvOi3lFFSkIISotudRV5IssKkVBedpcfIdyCUiFIpA3c3qeXpl6SU9m7zmoLsBHKLfOUEoCSV0JpXmr7XuaUJm5eSbm6J0gAlKtcs16SNgp16omUigEB/z3cMqfE2J5FCpA8aa1OqMwGqPPktjXhyjYFJXKRSvK2ORblVlVJRQ6FOrbQBLagsDDcUtpUw55a7YzJLDQqE9i6BausBlNDCj2kuuCyKdFpreQRwXVVZm1hS3HuQ6ULrqFcS/Wjg9uos2wmrmywBiif7JYt1XntNrciewFHBBf2Vj/5E0rT2u6q86r51BeCEuPoxWZDPgBdlRfOCUSdf0cF193uu/P9749ilj3cHbAwVRHugIsb4Ua422kuNkq5vb1V7slgQPWt6hHbMJu7xBEpwl1mK5tnXe24CXrLXLjmWVh5wCqq+KUjTRvPmuNxG1jxG2QWHOVKMPoVNvhazAB9HrAmT7ok1csKe9yWWfzVym4uXKmqbm+Z/WpbUWWq2gJfOa7H1YAtY4M3F65S3aK3zASoX4G19wtOd+kBi3BZQbZZcBUZMgtuOUtZEW4b3IC3rGXrW7AjXD/cVm+ZCRe2OeQBi3AZ7u6lG/RAGyHcq6srGZKDCMfn52f9L++BD+DWg2lL++J4ZijYG4iHAF6OckRQ3i5M+jfmYHJDSKkXLmJLGS6C8RAO+RuD2+Y+APbk5ERxe3l58cNFWDTi/BkwUsgdUo+Xn4HJClGi+PMqFxk/Pz9kxumalePncDj/+fk54Uc6rXBlLhG9v7/LkHTEm0aofqgwnRcXF9J0MrdecM3C8fNyBIJmYblmYmkfgU64s0yQyGa+uvY9/PgNd2YZTaa1QbcL9Pg2n9JEhZXWHq9gW9wPpz2a/+0iHXBnlE0yebXjRblpDfd/ZgC4fRbS7GNb4c6nE6lCpHrOc5pO2I+aEaAjXwYxo5CarAkcdeqyRDPKWJ3ugoTgWoqekNwY3I+bNuOR40XeBGND3y39mou1xs8tygWQZiKYHIPgyWAQs6wxGQZII3+WGfWb1bEWyigr52RBxAI2C8ImxwUHytwGp04ZNmmt/a4RqNlUGO7CRGtQ1iBVS364PHGzjrThrFykektgCwTMgrlbRL2LGKabOnDZZrf2q+ax3g9BuBiMOW8GpVKMQyk6ABdb0bHZJuiFqQTgqh0gN0s3XDV2Bm8CX+h0uBsBuLBPbCO5c31Pq6DZ9tQoC6thTAg1ZVl7lbTNFcI+WQTgos36hymCsqw5jXA/nBo2FXZWdqny5EjC/fIU15wG4K65l5E2F+EOuPARboQ7IIEBm47KjXAHJDBg01G5Ee6ABAZs+h9Sk3jCgSJfDgAAAABJRU5ErkJggg==;" vertex="1" parent="1">
          <mxGeometry x="-538.07" y="-510" width="98.09" height="63.14" as="geometry" />
        </mxCell>
        <mxCell id="zfGOiNllnzhhjnwTN5HJ-126" value="" style="rounded=0;whiteSpace=wrap;html=1;strokeWidth=1;fillColor=#FFFFFF;" vertex="1" parent="1">
          <mxGeometry x="-871.07" y="-510" width="107" height="50.77" as="geometry" />
        </mxCell>
        <mxCell id="zfGOiNllnzhhjnwTN5HJ-127" value="afhankelijk van kano&#39;s van vreemden" style="rounded=0;whiteSpace=wrap;html=1;strokeWidth=1;fillColor=#FFFFFF;" vertex="1" parent="1">
          <mxGeometry x="-716.1000000000001" y="-506.56" width="119.57" height="47.33" as="geometry" />
        </mxCell>
        <mxCell id="zfGOiNllnzhhjnwTN5HJ-128" value="Transport voor werknemers onvoldoende" style="rounded=0;whiteSpace=wrap;html=1;strokeWidth=1;fillColor=#FFFFFF;" vertex="1" parent="1">
          <mxGeometry x="-530.57" y="-501.06" width="93" height="32.88" as="geometry" />
        </mxCell>
        <mxCell id="zfGOiNllnzhhjnwTN5HJ-129" value="" style="endArrow=none;html=1;exitX=0.5;exitY=0;exitDx=0;exitDy=0;" edge="1" parent="1" source="zfGOiNllnzhhjnwTN5HJ-13">
          <mxGeometry width="50" height="50" relative="1" as="geometry">
            <mxPoint x="-340" y="-370" as="sourcePoint" />
            <mxPoint x="-430" y="-470" as="targetPoint" />
          </mxGeometry>
        </mxCell>
      </root>
    </mxGraphModel>
  </diagram>
</mxfile>
